<?xml version="1.0" encoding="UTF-8" standalone="no"?>
<!-- Created with Inkscape (http://www.inkscape.org/) -->

<svg
   xmlns:dc="http://purl.org/dc/elements/1.1/"
   xmlns:cc="http://creativecommons.org/ns#"
   xmlns:rdf="http://www.w3.org/1999/02/22-rdf-syntax-ns#"
   xmlns:svg="http://www.w3.org/2000/svg"
   xmlns="http://www.w3.org/2000/svg"
   xmlns:xlink="http://www.w3.org/1999/xlink"
   xmlns:sodipodi="http://sodipodi.sourceforge.net/DTD/sodipodi-0.dtd"
   xmlns:inkscape="http://www.inkscape.org/namespaces/inkscape"
   width="110mm"
   height="87mm"
   viewBox="0 0 110 87"
   version="1.1"
   id="svg8"
   inkscape:version="0.92.4 (5da689c313, 2019-01-14)"
   sodipodi:docname="picture_frame.svg"
   inkscape:export-filename="picture_frame.png"
   inkscape:export-xdpi="492.76001"
   inkscape:export-ydpi="492.76001">
  <title
     id="title817">Picture Frame</title>
  <defs
     id="defs2">
    <linearGradient
       inkscape:collect="always"
       id="linearGradient2603">
      <stop
         style="stop-color:#000000;stop-opacity:1;"
         offset="0"
         id="stop2599" />
      <stop
         style="stop-color:#000000;stop-opacity:0;"
         offset="1"
         id="stop2601" />
    </linearGradient>
    <pattern
       inkscape:collect="always"
       xlink:href="#Wavy"
       id="pattern2478"
       patternTransform="matrix(0.17533903,0.10898599,-0.82456954,1.3265854,2.4744522,-7.6777748)" />
    <pattern
       inkscape:isstock="true"
       inkscape:stockid="Wavy"
       id="Wavy"
       height="5.1805778"
       width="30.066020"
       patternUnits="userSpaceOnUse"
       inkscape:collect="always">
      <path
         id="path2251"
         d="M 7.597,0.061 C 5.079,-0.187 2.656,0.302 -0.01,1.788 L -0.01,3.061 C 2.773,1.431 5.173,1.052 7.472,1.280 C 9.770,1.508 11.969,2.361 14.253,3.218 C 18.820,4.931 23.804,6.676 30.066,3.061 L 30.062,1.788 C 23.622,5.497 19.246,3.770 14.691,2.061 C 12.413,1.207 10.115,0.311 7.597,0.061 z "
         style="fill:black;stroke:none;" />
    </pattern>
    <filter
       style="color-interpolation-filters:sRGB"
       inkscape:label="Drop Shadow"
       id="filter1335">
      <feFlood
         flood-opacity="1"
         flood-color="rgb(0,0,0)"
         result="flood"
         id="feFlood1325" />
      <feComposite
         in="flood"
         in2="SourceGraphic"
         operator="in"
         result="composite1"
         id="feComposite1327" />
      <feGaussianBlur
         in="composite1"
         stdDeviation="0.7"
         result="blur"
         id="feGaussianBlur1329" />
      <feOffset
         dx="0.8"
         dy="0"
         result="offset"
         id="feOffset1331" />
      <feComposite
         in="SourceGraphic"
         in2="offset"
         operator="over"
         result="composite2"
         id="feComposite1333" />
    </filter>
    <mask
       maskUnits="userSpaceOnUse"
       id="mask1351">
      <use
         transform="translate(-1,213)"
         style="stroke-width:0.99999994"
         x="0"
         y="0"
         xlink:href="#g1071"
         id="use1353"
         width="100%"
         height="100%" />
    </mask>
    <filter
       style="color-interpolation-filters:sRGB"
       inkscape:label="ShadowIN"
       id="filter1636">
      <feFlood
         flood-opacity="1"
         flood-color="rgb(0,0,0)"
         result="flood"
         id="feFlood1626" />
      <feComposite
         in="flood"
         in2="SourceGraphic"
         operator="out"
         result="composite1"
         id="feComposite1628" />
      <feGaussianBlur
         in="composite1"
         stdDeviation="0.3"
         result="blur"
         id="feGaussianBlur1630" />
      <feOffset
         dx="1.38778e-16"
         dy="0"
         result="offset"
         id="feOffset1632" />
      <feComposite
         in="offset"
         in2="SourceGraphic"
         operator="in"
         result="composite2"
         id="feComposite1634" />
      <feComposite
         in2="composite2"
         id="feComposite890" />
    </filter>
    <filter
       style="color-interpolation-filters:sRGB;"
       inkscape:label="ShadowOut"
       id="filter1010">
      <feFlood
         flood-opacity="0.498039"
         flood-color="rgb(0,0,0)"
         result="flood"
         id="feFlood1000" />
      <feComposite
         in="flood"
         in2="SourceGraphic"
         operator="in"
         result="composite1"
         id="feComposite1002" />
      <feGaussianBlur
         in="composite1"
         stdDeviation="0.4"
         result="blur"
         id="feGaussianBlur1004" />
      <feOffset
         dx="0.2"
         dy="0.2"
         result="offset"
         id="feOffset1006" />
      <feComposite
         in="offset"
         in2="SourceGraphic"
         operator="out"
         result="composite2"
         id="feComposite1008" />
      <feComposite
         in2="composite2"
         id="feComposite887"
         in="composite2"
         operator="over"
         result="result1" />
      <feComposite
         in2="result1"
         id="feComposite888" />
    </filter>
    <mask
       maskUnits="userSpaceOnUse"
       id="mask1351-3">
      <use
         transform="translate(-1,213)"
         style="stroke-width:0.99999994"
         x="0"
         y="0"
         xlink:href="#g1071"
         id="use1353-6"
         width="100%"
         height="100%" />
    </mask>
    <filter
       style="color-interpolation-filters:sRGB"
       inkscape:label="Drop Shadow"
       id="filter1335-7">
      <feFlood
         flood-opacity="1"
         flood-color="rgb(0,0,0)"
         result="flood"
         id="feFlood1325-5" />
      <feComposite
         in="flood"
         in2="SourceGraphic"
         operator="in"
         result="composite1"
         id="feComposite1327-3" />
      <feGaussianBlur
         in="composite1"
         stdDeviation="0.7"
         result="blur"
         id="feGaussianBlur1329-5" />
      <feOffset
         dx="0.8"
         dy="0"
         result="offset"
         id="feOffset1331-6" />
      <feComposite
         in="SourceGraphic"
         in2="offset"
         operator="over"
         result="composite2"
         id="feComposite1333-2" />
    </filter>
    <mask
       maskUnits="userSpaceOnUse"
       id="mask1032">
      <use
         transform="translate(-1,213)"
         style="stroke-width:0.99999994"
         x="0"
         y="0"
         xlink:href="#g1071"
         id="use1030"
         width="100%"
         height="100%" />
    </mask>
    <filter
       style="color-interpolation-filters:sRGB"
       inkscape:label="Drop Shadow"
       id="filter1044">
      <feFlood
         flood-opacity="1"
         flood-color="rgb(0,0,0)"
         result="flood"
         id="feFlood1034" />
      <feComposite
         in="flood"
         in2="SourceGraphic"
         operator="in"
         result="composite1"
         id="feComposite1036" />
      <feGaussianBlur
         in="composite1"
         stdDeviation="0.7"
         result="blur"
         id="feGaussianBlur1038" />
      <feOffset
         dx="0.8"
         dy="0"
         result="offset"
         id="feOffset1040" />
      <feComposite
         in="SourceGraphic"
         in2="offset"
         operator="over"
         result="composite2"
         id="feComposite1042" />
    </filter>
    <mask
       maskUnits="userSpaceOnUse"
       id="mask2519">
      <use
         transform="translate(0,2)"
         style="stroke-width:0.99999994"
         x="0"
         y="0"
         xlink:href="#g1071"
         id="use2521"
         width="100%"
         height="100%" />
    </mask>
    <filter
       inkscape:collect="always"
       style="color-interpolation-filters:sRGB"
       id="filter2527"
       x="-0.016118182"
       width="1.0322364"
       y="-0.02037931"
       height="1.0407586">
      <feGaussianBlur
         inkscape:collect="always"
         stdDeviation="0.73875"
         id="feGaussianBlur2529" />
    </filter>
    <linearGradient
       inkscape:collect="always"
       xlink:href="#linearGradient2603"
       id="linearGradient2605"
       x1="74.652483"
       y1="72.813839"
       x2="89.753121"
       y2="72.813839"
       gradientUnits="userSpaceOnUse"
       gradientTransform="translate(-1.8923359,-1.5649635)" />
    <filter
       inkscape:collect="always"
       style="color-interpolation-filters:sRGB"
       id="filter2708"
       x="-0.0021026372"
       width="1.0042053"
       y="-0.0027953253"
       height="1.0055907">
      <feGaussianBlur
         inkscape:collect="always"
         stdDeviation="0.10011561"
         id="feGaussianBlur2710" />
    </filter>
    <filter
       inkscape:menu="Shadows and Glows"
       inkscape:menu-tooltip="Cut out, add inner shadow and colorize some parts of an image"
       style="color-interpolation-filters:sRGB;"
       inkscape:label="Emergence"
       id="filter2778">
      <feColorMatrix
         values="0 0 0 0 0 0 0 0 0 0 0 0 0 0 0 0.21 0.72 0.07 0 0 "
         result="result1"
         id="feColorMatrix2750" />
      <feColorMatrix
         values="1 0 0 0 0 0 1 0 0 0 0 0 1 0 0 0 0 0 2 0 "
         result="result9"
         id="feColorMatrix2752" />
      <feComposite
         in2="result9"
         in="SourceGraphic"
         operator="in"
         result="result4"
         id="feComposite2754" />
      <feFlood
         result="result2"
         flood-color="rgb(0,0,0)"
         id="feFlood2756" />
      <feComposite
         in2="result9"
         operator="in"
         result="result10"
         id="feComposite2758" />
      <feComposite
         in2="result4"
         operator="atop"
         id="feComposite2760" />
      <feGaussianBlur
         stdDeviation="3"
         result="result8"
         id="feGaussianBlur2762" />
      <feOffset
         dx="3"
         dy="3"
         result="result3"
         in="result8"
         id="feOffset2764" />
      <feFlood
         flood-opacity="1"
         flood-color="rgb(219,173,62)"
         result="result5"
         id="feFlood2766" />
      <feMerge
         result="result6"
         id="feMerge2774">
        <feMergeNode
           in="result5"
           id="feMergeNode2768" />
        <feMergeNode
           in="result3"
           id="feMergeNode2770" />
        <feMergeNode
           in="result4"
           id="feMergeNode2772" />
      </feMerge>
      <feComposite
         in2="SourceGraphic"
         operator="in"
         result="result7"
         id="feComposite2776" />
    </filter>
    <filter
       style="color-interpolation-filters:sRGB;"
       inkscape:label="Drop Shadow"
       id="filter3028">
      <feFlood
         flood-opacity="1"
         flood-color="rgb(0,6,95)"
         result="flood"
         id="feFlood3018" />
      <feComposite
         in="flood"
         in2="SourceGraphic"
         operator="out"
         result="composite1"
         id="feComposite3020" />
      <feGaussianBlur
         in="composite1"
         stdDeviation="0.1"
         result="blur"
         id="feGaussianBlur3022" />
      <feOffset
         dx="0"
         dy="0"
         result="offset"
         id="feOffset3024" />
      <feComposite
         in="offset"
         in2="SourceGraphic"
         operator="atop"
         result="composite2"
         id="feComposite3026" />
    </filter>
  </defs>
  <sodipodi:namedview
     id="base"
     pagecolor="#ffffff"
     bordercolor="#666666"
     borderopacity="1.0"
     inkscape:pageopacity="0.0"
     inkscape:pageshadow="2"
     inkscape:zoom="2.1322302"
     inkscape:cx="154.71543"
     inkscape:cy="164.50375"
     inkscape:document-units="mm"
     inkscape:current-layer="layer7"
     showgrid="false"
     inkscape:showpageshadow="false"
     inkscape:pagecheckerboard="true"
     inkscape:window-width="1920"
     inkscape:window-height="1025"
     inkscape:window-x="0"
     inkscape:window-y="0"
     inkscape:window-maximized="1"
     inkscape:snap-object-midpoints="true"
     inkscape:snap-center="true"
     inkscape:snap-text-baseline="true"
     inkscape:snap-page="true"
     inkscape:snap-midpoints="true"
     inkscape:object-nodes="true"
     inkscape:snap-smooth-nodes="true"
     inkscape:snap-intersection-paths="true"
     inkscape:object-paths="true"
     inkscape:snap-bbox="true"
     inkscape:bbox-paths="true"
     inkscape:bbox-nodes="true"
     inkscape:snap-bbox-edge-midpoints="true"
     inkscape:snap-bbox-midpoints="true"
     fit-margin-top="1"
     fit-margin-left="1"
     fit-margin-bottom="1"
     fit-margin-right="1"
     showborder="true" />
  <metadata
     id="metadata5">
    <rdf:RDF>
      <cc:Work
         rdf:about="">
        <dc:format>image/svg+xml</dc:format>
        <dc:type
           rdf:resource="http://purl.org/dc/dcmitype/StillImage" />
        <dc:title>Picture Frame</dc:title>
        <cc:license
           rdf:resource="http://creativecommons.org/licenses/by/4.0/" />
        <dc:date>06.06.2019</dc:date>
        <dc:creator>
          <cc:Agent>
            <dc:title>Stefan Krüger</dc:title>
          </cc:Agent>
        </dc:creator>
        <dc:rights>
          <cc:Agent>
            <dc:title>Stefan Krüger</dc:title>
          </cc:Agent>
        </dc:rights>
        <dc:publisher>
          <cc:Agent>
            <dc:title>Stefan Krüger</dc:title>
          </cc:Agent>
        </dc:publisher>
        <dc:language>EN / DE</dc:language>
      </cc:Work>
      <cc:License
         rdf:about="http://creativecommons.org/licenses/by/4.0/">
        <cc:permits
           rdf:resource="http://creativecommons.org/ns#Reproduction" />
        <cc:permits
           rdf:resource="http://creativecommons.org/ns#Distribution" />
        <cc:requires
           rdf:resource="http://creativecommons.org/ns#Notice" />
        <cc:requires
           rdf:resource="http://creativecommons.org/ns#Attribution" />
        <cc:permits
           rdf:resource="http://creativecommons.org/ns#DerivativeWorks" />
      </cc:License>
    </rdf:RDF>
  </metadata>
  <g
     inkscape:groupmode="layer"
     id="layer8"
     inkscape:label="info">
    <text
       xml:space="preserve"
       style="font-style:normal;font-variant:normal;font-weight:normal;font-stretch:normal;font-size:2px;line-height:100%;font-family:Overlock;-inkscape-font-specification:Overlock;letter-spacing:0px;word-spacing:0px;fill:#000000;fill-opacity:1;stroke:none;stroke-width:0.26458332"
       x="-32.379086"
       y="5.205955"
       id="text1098"><tspan
         sodipodi:role="line"
         x="-32.379086"
         y="5.205955"
         style="stroke-width:0.26458332"
         id="tspan1106">Background-Image size: </tspan><tspan
         sodipodi:role="line"
         x="-32.379086"
         y="7.205955"
         style="stroke-width:0.26458332"
         id="tspan1146">   1920x1080 == 99x55,688mm</tspan><tspan
         sodipodi:role="line"
         x="-32.379086"
         y="9.2059555"
         style="stroke-width:0.26458332"
         id="tspan1140">top-left:</tspan><tspan
         sodipodi:role="line"
         x="-32.379086"
         y="11.205956"
         style="stroke-width:0.26458332"
         id="tspan1148">   107 / 142 == 5,5x7,312mm</tspan><tspan
         sodipodi:role="line"
         x="-32.379086"
         y="13.205956"
         style="stroke-width:0.26458332"
         id="tspan1150">bottom-left-from-bottom-left:</tspan><tspan
         sodipodi:role="line"
         x="-32.379086"
         y="15.205956"
         style="stroke-width:0.26458332"
         id="tspan1152">   107 / 466 == 5,5x24mm</tspan><tspan
         sodipodi:role="line"
         x="-32.379086"
         y="17.205956"
         style="stroke-width:0.26458332"
         id="tspan1134" /><tspan
         sodipodi:role="line"
         x="-32.379086"
         y="19.205956"
         style="stroke-width:0.26458332"
         id="tspan1138">Page Size:</tspan><tspan
         sodipodi:role="line"
         x="-32.379086"
         y="21.205956"
         style="stroke-width:0.26458332"
         id="tspan1130">2134x1688 == 110x87mm</tspan><tspan
         sodipodi:role="line"
         x="-32.379086"
         y="23.205956"
         style="stroke-width:0.26458332"
         id="tspan1110" /><tspan
         sodipodi:role="line"
         x="-32.379086"
         y="25.205956"
         style="stroke-width:0.26458332"
         id="tspan1136" /><tspan
         sodipodi:role="line"
         x="-32.379086"
         y="27.205956"
         style="stroke-width:0.26458332"
         id="tspan1114">calculation based on width:</tspan><tspan
         sodipodi:role="line"
         x="-32.379086"
         y="29.205956"
         style="stroke-width:0.26458332"
         id="tspan1118">1920 == 99mm</tspan><tspan
         sodipodi:role="line"
         x="-32.379086"
         y="31.205956"
         style="stroke-width:0.26458332"
         id="tspan1120">x == 110mm</tspan><tspan
         sodipodi:role="line"
         x="-32.379086"
         y="33.205956"
         style="stroke-width:0.26458332"
         id="tspan1122">x= 1920*110/99</tspan><tspan
         sodipodi:role="line"
         x="-32.379086"
         y="35.205956"
         style="stroke-width:0.26458332"
         id="tspan1124">=~ 2134</tspan><tspan
         sodipodi:role="line"
         x="-32.379086"
         y="37.205956"
         style="stroke-width:0.26458332"
         id="tspan1126" /><tspan
         sodipodi:role="line"
         x="-32.379086"
         y="39.205956"
         style="stroke-width:0.26458332"
         id="tspan1128" /></text>
  </g>
  <g
     inkscape:groupmode="layer"
     id="layer2"
     inkscape:label="test_bg"
     style="display:none"
     transform="translate(0,2)">
    <image
       sodipodi:absref="/media/stefan/STEFAN64/python_simple_photobooth_webcam/overlay/P1550157_crop_1920x1080.jpg"
       xlink:href="P1550157_crop_1920x1080.jpg"
       y="5.3119869"
       x="5.5"
       id="image1055"
       style="stroke-width:5.13128901;image-rendering:optimizeQuality"
       preserveAspectRatio="none"
       height="55.688004"
       width="99" />
  </g>
  <g
     inkscape:groupmode="layer"
     id="layer3"
     inkscape:label="shadow_in"
     style="display:inline"
     transform="translate(0,2)">
    <use
       transform="translate(0.99999988,-213)"
       style="display:inline;stroke-width:0.99999994;filter:url(#filter1636)"
       x="0"
       y="0"
       xlink:href="#rect1069"
       id="use1355"
       width="100%"
       height="100%" />
  </g>
  <g
     inkscape:groupmode="layer"
     id="layer5"
     inkscape:label="shadow_out"
     style="display:inline"
     sodipodi:insensitive="true">
    <use
       transform="translate(1,-211)"
       style="display:inline;stroke-width:0.99999994;filter:url(#filter1010)"
       x="0"
       y="0"
       xlink:href="#rect1067"
       id="use838"
       width="100%"
       height="100%" />
  </g>
  <g
     inkscape:label="mask"
     inkscape:groupmode="layer"
     id="layer1"
     transform="translate(0,-210)"
     style="display:inline"
     sodipodi:insensitive="true">
    <use
       x="0"
       y="0"
       xlink:href="#rect838-6"
       id="use1012"
       width="100%"
       height="100%" />
    <use
       style="display:inline"
       x="0"
       y="0"
       xlink:href="#rect838-6"
       id="use1012-9"
       width="100%"
       height="100%" />
    <rect
       style="display:inline;opacity:1;vector-effect:none;fill:#fffdf9;fill-opacity:1;fill-rule:nonzero;stroke:none;stroke-width:0.2;stroke-linecap:round;stroke-linejoin:round;stroke-miterlimit:4;stroke-dasharray:none;stroke-dashoffset:0;stroke-opacity:1;paint-order:fill markers stroke"
       id="rect838-6"
       width="108"
       height="85.000008"
       x="0"
       y="212"
       mask="url(#mask1351)"
       transform="translate(1,-1.0000009)" />
  </g>
  <g
     inkscape:groupmode="layer"
     id="layer6"
     inkscape:label="effects_overlay"
     style="display:inline"
     sodipodi:insensitive="true">
    <rect
       style="opacity:0.03999999;vector-effect:none;fill:url(#pattern2478);fill-opacity:1;fill-rule:nonzero;stroke:none;stroke-width:0.1;stroke-linecap:round;stroke-linejoin:round;stroke-miterlimit:4;stroke-dasharray:none;stroke-dashoffset:0;stroke-opacity:1;paint-order:fill markers stroke;filter:url(#filter2527)"
       id="rect905"
       width="110"
       height="87"
       x="0"
       y="0"
       mask="url(#mask2519)" />
  </g>
  <g
     inkscape:groupmode="layer"
     id="layer9"
     inkscape:label="effects_overlay2"
     sodipodi:insensitive="true">
    <path
       style="opacity:0.03999999;vector-effect:none;fill:url(#linearGradient2605);fill-opacity:1;fill-rule:nonzero;stroke:#000000;stroke-width:0.05;stroke-linecap:round;stroke-linejoin:round;stroke-miterlimit:4;stroke-dasharray:none;stroke-dashoffset:0;stroke-opacity:0.32352941;paint-order:fill markers stroke"
       id="path903"
       d="m 87.809911,67.238619 c -0.663379,0.837184 -1.884185,0.530333 -2.672873,1.07912 -0.507357,0.353027 -0.872665,0.875564 -1.308997,1.313349 -0.512834,0.407048 -0.991087,0.861946 -1.538505,1.221145 -0.743974,0.488174 -1.888937,0.762812 -2.694633,1.011652 -0.592278,0.478155 -1.375016,0.427162 -2.033606,0.714323 -0.64153,0.279722 -1.285444,0.566801 -1.877031,0.940736 -0.640365,0.404768 -1.173025,0.962665 -1.802082,1.384795 -1.041313,0.698767 -0.909143,0.681269 -0.90646,-0.0061 0.856716,-0.667478 0.66411,-0.290627 0.875715,-0.919321 0.0074,-0.01251 0.184558,0.09177 0.177181,0.104293 v 0 c -0.267454,0.605627 -0.06133,0.247491 -0.778497,0.964714 -0.142623,0.03969 -0.511148,0.241468 -0.427868,0.119073 0.179419,-0.263702 0.489575,-0.410152 0.750613,-0.593426 0.632282,-0.443926 1.256342,-0.904415 1.927566,-1.286923 0.223409,-0.127315 2.072126,-1.026755 2.746563,-1.229082 0.420531,-0.126159 0.852977,-0.208505 1.279466,-0.312756 0.498674,-0.17757 1.026372,-0.288504 1.496023,-0.532707 0.336897,-0.175175 0.598435,-0.467693 0.891739,-0.708855 0.501345,-0.412219 0.965956,-0.870956 1.492014,-1.25113 0.52587,-0.38004 1.130279,-0.642782 1.655583,-1.0236 0.329364,-0.238772 0.524216,-0.665115 0.897361,-0.827153 0.545015,-0.236672 1.168606,-0.215818 1.752909,-0.323728 0.01143,-0.0069 0.109247,0.154691 0.09782,0.161607 z"
       inkscape:connector-curvature="0" />
    <g
       id="g2698"
       style="opacity:0.02000002;stroke:none;stroke-opacity:1;filter:url(#filter2708)">
      <path
         inkscape:connector-curvature="0"
         d="m 104.14901,62.577397 c 0.0676,0.420177 0.13521,0.840355 0.20282,1.260528 0.19417,0.146415 0.49996,0.2105 0.58251,0.439245 0.0559,0.154805 -0.34612,-0.0347 -0.47394,-0.138385 -0.15673,-0.127137 -0.2334,-0.330893 -0.32578,-0.510323 -0.0324,-0.06286 -0.0989,-0.251859 -0.0438,-0.207539 0.21088,0.169659 0.35987,0.404376 0.5398,0.606563 0.82214,1.403884 0.51091,0.549042 0.68234,1.67835 0.005,0.03 0.0677,0.08593 0.0375,0.08296 -0.17138,-0.01685 -0.5384,-0.296399 -0.50038,-0.12845 0.0423,0.186754 0.34959,0.15634 0.52439,0.234508 0.0608,0.281588 0.12162,0.563179 0.18243,0.84477 0.50135,1.118417 0.30853,0.502147 0.51888,1.86641 8e-4,0.0145 -0.20419,0.02619 -0.20502,0.0117 v 0 c -0.005,-1.364419 0.15812,-0.757277 -0.39159,-1.844937 -0.12897,-0.271354 -0.30651,-0.524579 -0.3869,-0.814065 -0.0366,-0.131759 0.15814,-0.326884 0.0477,-0.407458 -0.0964,-0.07033 -0.10937,0.215871 -0.19119,0.302784 -0.029,0.03077 -0.10668,0.06992 -0.12296,0.03092 -0.23439,-0.561601 -0.0316,-1.25916 -0.46497,-1.765456 0.009,-0.287239 -0.0485,-0.584718 0.0281,-0.861718 0.0238,-0.08627 0.11192,0.142086 0.14823,0.223898 0.0797,0.179581 0.17057,0.360704 0.19761,0.555307 0.11351,0.816859 -0.43232,-0.04809 -0.48648,-0.167857 -0.17466,-0.386252 -0.24539,-0.811524 -0.36809,-1.217287 -0.005,-0.019 0.26354,-0.09348 0.26881,-0.07447 z"
         id="path901"
         style="opacity:0.03999999;vector-effect:none;fill:#000000;fill-opacity:0.99500002;fill-rule:nonzero;stroke:none;stroke-width:0.1;stroke-linecap:round;stroke-linejoin:round;stroke-miterlimit:4;stroke-dasharray:none;stroke-dashoffset:0;stroke-opacity:1;paint-order:fill markers stroke" />
      <path
         inkscape:connector-curvature="0"
         d="m 1.6505505,61.833828 c 3.9331262,-0.915792 0.8399219,-0.513797 4.9498916,-0.143119 0.3206708,0.02892 0.6401168,-0.07136 0.9611786,-0.09556 0.1184849,-0.0089 0.2405616,0.02252 0.3564432,-0.0038 0.8085032,-0.183251 -0.179247,-0.183145 0.7160882,-0.12759 0.211833,-0.07213 0.411957,-0.206145 0.6355,-0.216403 0.247267,-0.01135 0.72798,0.204298 0.610793,0.422328 -0.04796,0.08924 -0.559793,0.357777 -0.673249,0.0957 -0.04959,-0.114546 0.08306,-0.23541 0.124595,-0.353118 0.0143,-0.01521 0.229462,0.187052 0.215159,0.202266 v 0 c -0.04152,-0.03701 -0.06919,-0.116226 -0.124573,-0.111035 -0.0411,0.0039 0.0029,0.08996 0.03151,0.119758 0.05513,0.0575 0.139189,0.07829 0.203475,0.125325 0.0167,0.01222 -0.03891,-0.01431 -0.05893,-0.01955 -0.523559,-0.137012 -0.34782,-0.09443 -0.902354,-0.18718 -0.367376,0.348917 -0.08929,0.160433 -0.695038,0.315854 -0.2117336,0.05433 -0.4114175,0.187442 -0.6299472,0.182232 -0.2550943,-0.0061 -0.4807874,-0.190074 -0.7347569,-0.214759 -2.2274498,-0.216527 -2.7056236,-0.07181 -4.9365476,0.119716 -0.00786,0.0035 -0.057093,-0.107628 -0.049237,-0.11111 z"
         id="path899"
         style="opacity:0.03999999;vector-effect:none;fill:#000000;fill-opacity:0.99500002;fill-rule:nonzero;stroke:none;stroke-width:0.1;stroke-linecap:round;stroke-linejoin:round;stroke-miterlimit:4;stroke-dasharray:none;stroke-dashoffset:0;stroke-opacity:1;paint-order:fill markers stroke" />
      <path
         style="display:inline;opacity:0.03999999;vector-effect:none;fill:#000000;fill-opacity:0.99500002;fill-rule:nonzero;stroke:none;stroke-width:0.1;stroke-linecap:round;stroke-linejoin:round;stroke-miterlimit:4;stroke-dasharray:none;stroke-dashoffset:0;stroke-opacity:1;paint-order:fill markers stroke"
         id="path2536"
         d="m 103.91072,62.484268 c 0.77507,-0.02018 1.68674,-0.0727 2.45785,0.02954 0.26663,0.03535 0.52842,0.203997 0.79547,0.214637 0.35183,0.01402 0.70198,-0.121601 1.05375,-0.14095 1.90596,-0.104825 0.10418,0.227547 1.85053,-0.166027 1.00492,-0.256946 2.01552,-0.37357 3.02194,-0.592495 0.2677,-0.05823 0.53326,-0.159218 0.80083,-0.220399 0.005,-0.0012 0.65631,-0.231627 0.79885,0.03538 0.0285,0.05348 -0.0389,0.141814 -0.0583,0.212722 -0.11051,0.04124 -0.22101,0.08249 -0.33151,0.123738 -0.005,0.0037 -0.0286,-0.162405 -0.0234,-0.166085 v 0 c 0.10308,-0.01168 0.20617,-0.02335 0.30925,-0.03502 0.0288,-0.0106 0.11263,-0.0032 0.0864,-0.03179 -0.0607,-0.06622 -0.13133,-0.102571 -0.19875,-0.09068 -0.18135,0.03199 -0.35722,0.154362 -0.5367,0.22041 -0.26537,0.09765 -0.53157,0.183758 -0.79769,0.270621 -1.94829,0.635932 -1.01879,0.472752 -3.04679,0.457524 -1.96624,0.291854 0.29945,-0.01759 -1.89876,0.187403 -0.35258,0.03288 -0.70403,0.126597 -1.05689,0.136412 -0.2705,0.0075 -0.54026,-0.06727 -0.81067,-0.08447 -2.14539,-0.136405 -0.41116,0.08334 -2.43116,-0.224088 -0.004,-0.0025 0.0114,-0.138851 0.0157,-0.136375 z"
         inkscape:connector-curvature="0" />
      <path
         inkscape:connector-curvature="0"
         d="M 5.1304065,5.9377667 C 4.5518974,6.5058506 4.2035674,7.2706689 3.6543411,7.8648665 3.5892284,7.9353105 3.5079614,8.0230635 3.4120772,8.0201936 3.3474207,8.0182621 3.2547388,7.8866422 3.3109228,7.8545869 3.3901882,7.809363 3.5534904,7.8385955 3.5748626,7.9273177 3.6454746,8.2204458 3.5557729,8.5300419 3.5462297,8.8314039 3.364789,9.2930981 3.1963791,9.905567 2.8434905,10.303715 c -0.1078277,0.121657 -0.250558,0.208373 -0.3868954,0.296913 -0.062016,0.04027 -0.1448648,0.131149 -0.2041098,0.0869 -0.065517,-0.04894 -0.081437,-0.28083 -0.00783,-0.245199 0.1426491,0.06906 0.1906447,0.253228 0.2859671,0.379842 -0.00831,0.888242 0.158241,0.650455 -0.4227599,1.254571 -0.08108,0.08431 -0.1569509,0.192128 -0.2691674,0.225124 -0.2249354,0.06614 -0.1915404,-0.276384 -0.1828812,-0.33725 0.00723,-0.05084 0.04326,-0.09315 0.06489,-0.13973 0.070417,0.144381 0.1408342,0.288761 0.2112513,0.433141 -6.932e-4,0.0187 -0.2651058,0.0089 -0.2644138,-0.0098 v 0 c 0.053401,-0.06143 0.1068026,-0.122863 0.160204,-0.184295 0.098991,-0.241257 -0.1851115,0.373025 -0.1749367,0.126184 0.00372,-0.09016 0.1116675,-0.142031 0.1614704,-0.217279 0.3950664,-0.596911 0.26822,-0.349362 0.4173383,-1.100713 0.2627106,-0.778175 0.088033,0.04414 -0.097397,-0.329948 -0.02728,-0.05504 0.042511,-0.11869 0.083919,-0.164062 0.089595,-0.09817 0.2055831,-0.168801 0.3026861,-0.259555 C 3.1343632,9.5451439 2.8902081,9.80682 3.2248637,8.780451 3.2683281,8.5582203 3.3051078,8.334577 3.355257,8.1137587 3.3714362,8.042512 3.458568,7.9696272 3.4235713,7.9054935 3.389488,7.8430339 3.1787772,7.9186274 3.2155294,7.8576997 3.2673682,7.7717625 3.4381882,7.8475794 3.5041393,7.7719289 4.029632,7.1691552 4.0324165,6.1895677 4.8556474,5.7898254 c 0.010462,-0.019428 0.28522,0.1285121 0.2747591,0.1479413 z"
         id="path2611"
         style="opacity:1;vector-effect:none;fill:#000000;fill-opacity:0.99500002;fill-rule:nonzero;stroke:none;stroke-width:0.05;stroke-linecap:round;stroke-linejoin:round;stroke-miterlimit:4;stroke-dasharray:none;stroke-dashoffset:0;stroke-opacity:1;paint-order:fill markers stroke" />
      <path
         inkscape:connector-curvature="0"
         d="m 5.3288683,12.000563 c -1.4308068,2.43252 -0.2223531,0.130867 -0.8407233,1.824868 -0.00967,0.02648 -0.067938,0.03423 -0.083844,0.01096 -0.082929,-0.12131 -0.1374473,-0.261372 -0.182871,-0.401122 -0.015203,-0.04677 0.1011603,0.06862 0.090395,0.116612 -0.06624,0.295293 -0.2054164,0.569339 -0.3081245,0.854008 -0.285087,1.368314 -0.080188,1.102816 -0.7073935,2.07067 -0.057484,0.08871 -0.097326,0.230991 -0.2021887,0.244286 -0.083598,0.0106 -0.07223,-0.207192 -0.1560843,-0.198862 -0.07433,0.0074 -0.02815,0.146835 -0.047212,0.219058 -0.048727,0.184616 -0.1040488,0.367429 -0.1560733,0.551143 -0.066711,0.692526 0.013732,0.671694 -0.3006563,1.236358 -0.033201,0.05963 -0.070179,0.156133 -0.1382397,0.151041 -0.061698,-0.0046 -0.1262477,-0.126051 -0.080211,-0.167387 0.044371,-0.03984 0.1363143,0.06211 0.1312796,0.121533 -0.00734,0.08658 -0.1060506,0.137682 -0.1590759,0.206522 -0.033264,0.791226 0.091833,0.05859 -0.1535407,0.360608 -0.025887,0.03186 0.079965,-0.01862 0.1199476,-0.02793 0.010859,0.01201 -0.1590445,0.165588 -0.1699038,0.153574 v 0 c -0.079731,-0.06482 -0.2302782,-0.0921 -0.2391915,-0.194466 -0.014018,-0.160999 0.5417981,-0.07031 0.2633984,-0.407031 0.053649,-0.01495 0.1059553,-0.03603 0.1609463,-0.04484 0.08977,-0.01438 0.3259801,0.04844 0.2716446,-0.02445 -0.065081,-0.08731 -0.2295321,0.0098 -0.3235408,-0.04517 -0.2357549,-0.137816 0.1158114,-0.394432 0.2360864,-0.682779 0.092278,-0.221226 0.1292216,-0.461657 0.1938325,-0.692485 0.040649,-0.694044 -0.1551947,-0.608988 0.5295902,-0.707121 0.076492,-0.01096 -0.1668137,0.129674 -0.219864,0.07349 -0.057664,-0.06107 0.027992,-0.166714 0.057638,-0.245303 0.1763689,-0.467552 0.7444603,-1.702093 0.8897501,-2.024621 0.2041507,-0.331964 0.3598407,-0.699134 0.6124522,-0.995891 0.043187,-0.05073 0.1088284,0.124029 0.078998,0.183604 -0.059233,0.118296 -0.2119926,0.160901 -0.3006603,0.259087 -0.020352,0.02254 0.081122,0.006 0.087993,-0.02359 0.054889,-0.236289 -0.00969,-0.499541 0.085371,-0.722717 0.1747205,-0.410174 0.4708671,-0.757209 0.7063007,-1.135813 0.00737,-0.01794 0.2611406,0.08621 0.2537756,0.104157 z"
         id="path2613"
         style="opacity:1;vector-effect:none;fill:#000000;fill-opacity:0.99500002;fill-rule:nonzero;stroke:none;stroke-width:0.05;stroke-linecap:round;stroke-linejoin:round;stroke-miterlimit:4;stroke-dasharray:none;stroke-dashoffset:0;stroke-opacity:1;paint-order:fill markers stroke" />
      <path
         inkscape:connector-curvature="0"
         d="m 5.3293065,21.322785 c -0.4901351,0.459798 -0.7051783,1.141995 -1.1521739,1.637667 -0.092596,0.102679 -0.207649,0.187257 -0.330582,0.250538 -0.06714,0.03456 -0.1787959,-0.02575 -0.2238418,0.03486 -0.044195,0.05946 0.02318,0.146349 0.034771,0.219523 -0.119181,0.152606 -0.2383623,0.305211 -0.3575436,0.457817 -0.5229982,0.65434 -0.6191663,0.659034 -0.8966555,1.349363 -0.032655,0.08124 -0.010611,0.181178 -0.05447,0.256955 -0.020393,0.03524 -0.1152742,-0.0029 -0.1161324,0.03781 -0.00107,0.05092 0.09878,0.05381 0.1131705,0.102669 0.046653,0.158399 0.04122,0.327671 0.06183,0.491506 -0.2223456,0.388217 -0.4638206,0.787085 -0.6536199,1.194641 -0.04242,0.09109 -0.00691,0.261808 -0.1052441,0.282472 -0.1227928,0.0258 -0.2796507,-0.07482 -0.3235654,-0.192358 -0.03036,-0.08126 0.097003,-0.201377 0.1823184,-0.185695 0.1344072,0.02471 0.2026561,0.183396 0.3039841,0.275093 0.1907114,0.573595 0.2375011,0.313039 -0.1760975,0.79657 -0.070124,0.08198 -0.1410364,0.16329 -0.2125076,0.244099 -0.01662,0.01879 -0.056322,0.03 -0.051732,0.05466 0.015952,0.08573 0.070916,0.159322 0.1063741,0.238982 0.00228,0.01543 -0.2156814,0.04764 -0.2179603,0.03223 v 0 C 1.179458,28.779628 1.0448157,28.678692 1.0191182,28.534516 1.0047074,28.453664 1.1118129,28.398919 1.1578,28.330877 c 0.043383,-0.06419 0.068901,-0.144693 0.1294276,-0.193056 0.4410208,-0.352404 0.2865988,0.08307 0.3654783,-0.514131 -2.228e-4,-0.0604 0.0149,-0.122846 -6.694e-4,-0.181208 -0.00211,-0.0079 -0.3303053,0.02426 -0.3391779,0.01066 -0.052275,-0.0801 0.087067,-0.170336 0.1323054,-0.254603 0.4579343,-0.853017 0.083711,-0.121473 0.5766367,-1.110544 0.049596,-0.101095 0.1290739,-0.192424 0.1487859,-0.303295 0.00894,-0.05026 -0.050697,-0.08887 -0.070711,-0.13583 -0.034639,-0.08127 -0.091836,-0.159864 -0.092967,-0.248205 -0.00135,-0.105709 0.046439,-0.207221 0.08588,-0.305306 0.2990275,-0.74365 0.2932247,-0.607081 0.8894353,-1.317059 0.1587786,-0.162478 0.3175572,-0.324957 0.4763355,-0.487435 0.018307,-0.05519 0.019233,-0.119662 0.05492,-0.165568 0.4044905,-0.520299 -0.2751032,0.825754 0.4903697,-0.268846 0.1304052,-0.186475 0.1520296,-0.428954 0.2280444,-0.64343 0.2553221,-0.363054 0.5106445,-0.726108 0.7659666,-1.089162 0.014065,-0.02344 0.3455115,0.175486 0.3314457,0.198923 z"
         id="path2615"
         style="opacity:1;vector-effect:none;fill:#000000;fill-opacity:0.99500002;fill-rule:nonzero;stroke:none;stroke-width:0.05;stroke-linecap:round;stroke-linejoin:round;stroke-miterlimit:4;stroke-dasharray:none;stroke-dashoffset:0;stroke-opacity:1;paint-order:fill markers stroke" />
      <path
         inkscape:connector-curvature="0"
         d="M 4.9305217,30.142002 C 4.5821607,30.618266 4.2338,31.094531 3.885439,31.570795 c -0.2099903,0.315338 -0.4073453,0.639468 -0.6299705,0.94602 -0.031387,0.04322 0.030869,-0.102592 0.052815,-0.151289 0.1086337,-0.241051 0.2123699,-0.484976 0.3386214,-0.717285 0.043629,-0.08028 0.1803718,-0.306705 0.1686351,-0.216093 -0.028034,0.216426 -0.1469959,0.410972 -0.2204939,0.61646 -0.089832,0.143698 -1.8771418,2.998505 -1.9407724,3.117557 -0.1164606,0.217897 -0.1259172,0.481994 -0.2393085,0.701505 -0.029376,0.05687 -0.03973,-0.128209 -0.024699,-0.190426 0.139856,-0.578863 0.082915,-0.472662 0.4668241,-0.679312 0.034726,1.172609 0.1537628,0.258397 -0.6109565,1.461431 -0.09648,0.151778 -0.094256,0.352708 -0.1898832,0.505026 -0.029845,0.04754 -0.043558,-0.114903 -0.022402,-0.166894 0.083899,-0.206171 0.2618899,-0.431408 0.4026185,-0.618736 -0.054529,0.55493 -1.275e-4,0.63299 -0.3848353,1.158042 -0.11769278,0.160629 -0.4089433,0.207105 -0.44029952,0.403751 -0.0206801,0.129694 0.21466709,0.195705 0.3458161,0.188791 0.0845532,-0.0044 -0.10551411,-0.13245 -0.15827116,-0.198675 0.0145373,-0.01736 0.26012898,0.188222 0.24559158,0.205589 v 0 c -0.14077615,0.03833 -0.28873893,0.173646 -0.42232858,0.114985 -0.09885,-0.0434 -0.0576284,-0.213278 -0.0459427,-0.320603 C 0.66089092,36.952785 1.0226465,36.692522 1.6685079,36.339152 1.5400796,36.649919 1.5419936,36.772857 1.1007993,36.90992 0.99934923,36.94144 0.78992042,36.93445 0.79273876,36.82826 0.79751576,36.648274 1.0343067,36.555601 1.114481,36.394388 1.7358883,35.144856 1.038918,35.815361 2.0057039,35.102806 c -0.062123,0.0579 -0.1290127,0.111072 -0.1863676,0.173696 -0.1360141,0.148514 -0.2262838,0.345882 -0.3929752,0.458886 -0.089244,0.0605 -0.3006084,0.131683 -0.3224031,0.02609 C 1.050596,35.502943 1.14879,35.221024 1.2720078,34.987561 1.8503979,33.89167 2.7399571,32.940673 3.5317338,32.0055 3.7226606,31.850343 3.8837526,31.648617 4.1045138,31.54003 4.2122712,31.48703 3.9577045,31.730276 3.8898481,31.829351 3.7243932,32.070939 3.6615007,32.420882 3.4047837,32.56172 3.2554005,32.643672 2.9306472,32.521114 2.939106,32.35094 2.977343,31.581664 4.3912282,30.336778 4.7141736,29.995495 4.724532,29.980202 4.940881,30.126701 4.9305215,30.142 Z"
         id="path2617"
         style="opacity:1;vector-effect:none;fill:#000000;fill-opacity:0.99500002;fill-rule:nonzero;stroke:none;stroke-width:0.05;stroke-linecap:round;stroke-linejoin:round;stroke-miterlimit:4;stroke-dasharray:none;stroke-dashoffset:0;stroke-opacity:1;paint-order:fill markers stroke" />
      <path
         inkscape:connector-curvature="0"
         d="M 5.2637367,37.308792 C 4.9607774,37.811868 4.6892074,38.335235 4.354859,38.81802 4.1348522,39.1357 3.8931622,39.444443 3.6057937,39.70279 c -0.041462,0.03727 -0.066929,-0.09955 -0.062536,-0.155133 0.00872,-0.110355 -0.010798,-0.320532 0.099836,-0.316738 0.1370814,0.0047 0.2487816,0.1915 0.2476,0.328657 -0.00233,0.270439 -0.1713735,0.51303 -0.2570602,0.769546 -0.2093486,0.246618 -0.4273193,0.486167 -0.6280457,0.739852 -0.094442,0.119359 -0.1785204,0.247062 -0.2563428,0.377864 -0.028773,0.04836 0.07669,-0.08292 0.1084865,-0.129346 0.049003,-0.07155 0.052082,-0.192749 0.1331664,-0.223512 0.093877,-0.03562 0.2712908,-0.0365 0.2949644,0.06107 0.043599,0.179703 -0.100407,0.355939 -0.1506104,0.533908 -0.3093516,0.03911 -0.3391003,0.702411 -0.6738243,0.780664 -0.00614,0.0013 0.2183796,-0.670859 0.3114981,-0.0063 0.035289,0.251854 -0.3436936,0.744117 -0.4394617,0.892209 -0.08033,0.105381 -0.1432701,0.226653 -0.2409911,0.316146 -0.068466,0.0627 -0.1618501,0.09145 -0.2462696,0.130085 -0.062327,0.02852 -0.153014,0.126597 -0.1930073,0.07093 -0.047774,-0.0665 -0.00518,-0.224494 0.076196,-0.233519 0.1348823,-0.01495 0.1314578,0.321175 0.1509049,0.564407 -0.060429,0.572315 0.076869,0.374618 -0.3042402,0.654867 -0.00594,0.01286 -0.1877801,-0.0711 -0.1818431,-0.08396 v 0 c 0.053741,-0.365069 0.00732,-0.161012 0.1700855,-0.604335 0.2467301,-1.212442 -0.2395485,0.663469 0.456641,-0.315722 0.061633,-0.08669 -0.1400773,-0.168979 -0.2361766,-0.214564 -0.033352,-0.01582 -0.1174496,0.08663 -0.094529,0.05769 0.3289534,-0.415282 0.025305,0.263168 0.2992071,-0.543661 0.1002101,-0.144674 0.2004201,-0.289348 0.3006302,-0.434025 0.054306,-0.0218 0.1242055,-0.02151 0.1629178,-0.06539 0.1989657,-0.225534 -0.2175906,-0.184489 -0.2364084,-0.308581 -0.032257,-0.212712 0.6671227,-0.780066 0.6728173,-0.7854 0.084288,-0.09344 0.1665613,-0.188738 0.2528647,-0.280318 0.1708872,-0.18134 -0.4170188,0.561438 -0.5307131,0.117909 -0.1183457,-0.461672 1.0262467,-0.845085 0.8521125,-1.148138 0.057998,-0.221991 0.067705,-0.462632 0.173995,-0.66597 0.048668,-0.0931 0.2230488,-0.268764 0.2640632,-0.172045 0.2289968,0.540009 -0.5926768,0.300262 -0.5552938,0.152085 0.241186,-0.955979 1.5548877,-1.442784 1.7626052,-2.375257 0.00849,-0.01093 0.1631881,0.109061 0.154703,0.119999 z"
         id="path2619"
         style="opacity:1;vector-effect:none;fill:#000000;fill-opacity:0.99500002;fill-rule:nonzero;stroke:none;stroke-width:0.05;stroke-linecap:round;stroke-linejoin:round;stroke-miterlimit:4;stroke-dasharray:none;stroke-dashoffset:0;stroke-opacity:1;paint-order:fill markers stroke" />
      <path
         inkscape:connector-curvature="0"
         d="m 5.5934708,46.72583 c -0.8704786,-0.11565 -1.3792528,0.880561 -2.1652311,0.999853 -0.1012664,0.01537 -0.2569431,-0.1647 -0.1895594,-0.241842 0.012502,-0.01433 0.795341,-0.269532 0.7957813,0.108837 2.729e-4,0.235896 -0.2059696,0.424454 -0.3089542,0.636681 -2.664786,1.279947 0.2881025,-0.159458 -1.6604048,0.840029 -0.028169,0.01444 -0.106955,0.0534 -0.091404,0.02582 0.069593,-0.123423 0.3701617,-0.402899 0.31619,0.112305 -0.017699,0.16895 -0.1470849,0.306263 -0.2206269,0.459396 -2.41211583,2.380066 0.9499069,-0.760663 -1.5648322,1.058359 -0.0638105,0.04616 -0.0252337,0.188785 0.0400426,0.232844 0.0473421,0.03195 0.0502961,-0.102962 0.0821529,-0.150368 0.28713611,-0.42728 -0.0206093,0.19157 -0.0852534,0.349656 -0.0188779,0.0151 -0.232519,-0.251895 -0.21363858,-0.267003 v 0 c 0.18463382,0.0069 0.38609154,-0.05646 0.55389996,0.02085 0.0735672,0.03389 -0.11583601,0.158694 -0.19553884,0.144264 -0.13786353,-0.0249 -0.73381152,-0.252951 -0.37592681,-0.54479 0.47486157,-0.387224 1.17018747,-0.444859 1.57543067,-0.947067 0.1536161,-0.124359 0.4006537,-0.184821 0.4608478,-0.373076 0.033949,-0.106179 -0.2360193,0.02883 -0.3334656,-0.02531 -0.077744,-0.0432 -0.1053189,-0.14736 -0.130745,-0.232585 -0.00561,-0.01881 0.041735,-0.0061 0.055298,-0.02031 0.8287618,-0.867924 0.1627377,-0.45515 1.5228499,-0.922447 0.1216218,-0.06284 0.2532608,-0.109253 0.3648665,-0.188532 0.017841,-0.01268 -0.041048,-0.01624 -0.059029,-0.02873 -0.096448,-0.06685 -0.1776168,-0.158142 -0.2835188,-0.208693 -0.046142,-0.02201 -0.197803,0.02545 -0.1533768,1.54e-4 0.6830552,-0.388989 1.4799241,-0.557526 2.1591259,-0.948185 0.00777,-0.0075 0.1127923,0.102447 0.1050228,0.109874 z"
         id="path2621"
         style="opacity:1;vector-effect:none;fill:#000000;fill-opacity:0.99500002;fill-rule:nonzero;stroke:none;stroke-width:0.05;stroke-linecap:round;stroke-linejoin:round;stroke-miterlimit:4;stroke-dasharray:none;stroke-dashoffset:0;stroke-opacity:1;paint-order:fill markers stroke" />
      <path
         inkscape:connector-curvature="0"
         d="m 6.213304,53.074214 c -0.4671197,0.314833 -1.8444996,1.312011 -2.5015289,1.537199 -0.1404198,0.04812 0.1851274,-0.240859 0.3122439,-0.31751 0.5359763,-0.3232 0.1801221,0.6246 0.1280445,0.68141 -0.296022,0.322921 -0.7539916,0.446232 -1.1309883,0.669351 -1.0830516,-0.520657 -0.6176591,0.728834 -1.0426121,0.906087 -0.089577,0.03736 -0.00631,-0.569814 0.1006899,-0.485786 0.5847834,0.459262 -0.049855,0.591531 -0.3091267,0.730179 -0.1596057,-0.336507 -0.1829096,0.70182 -0.3844322,0.584485 -0.099935,-0.05818 -0.06931,-0.220642 -0.1039645,-0.330963 0.01372,-0.01968 0.2919544,0.174333 0.2782323,0.194015 v 0 c -0.1191242,0.0038 -0.2663035,0.08822 -0.3573689,0.01133 -0.1899307,-0.16036 0.7052922,-0.614885 0.3404166,-0.663492 0.146627,-0.113776 0.2654419,-0.277968 0.4398853,-0.341335 0.1045382,-0.03797 0.2953413,-0.0439 0.3277652,0.06249 0.033123,0.10869 -0.1192971,0.245034 -0.2328545,0.248946 -0.1474583,0.0051 -0.3724178,-0.08047 -0.3794911,-0.227837 -0.022947,-0.478246 1.5979361,-0.219419 1.04355,-0.987025 0.3904427,-0.196953 0.7841154,-0.387634 1.17133,-0.590865 0.1227352,-0.06442 0.264391,-0.109418 0.3578902,-0.211748 0.032682,-0.03577 -0.097767,-0.007 -0.1435564,-0.02283 -0.2252597,-0.07793 -0.8016281,-0.06089 -0.6670572,-0.257629 0.5543281,-0.810405 2.3834121,-0.03555 2.5623039,-1.452896 0.018696,-0.01348 0.2093238,0.250946 0.1906258,0.264425 z"
         id="path2623"
         style="opacity:1;vector-effect:none;fill:#000000;fill-opacity:0.99500002;fill-rule:nonzero;stroke:none;stroke-width:0.05;stroke-linecap:round;stroke-linejoin:round;stroke-miterlimit:4;stroke-dasharray:none;stroke-dashoffset:0;stroke-opacity:1;paint-order:fill markers stroke" />
      <path
         inkscape:connector-curvature="0"
         d="M 2.5608426,5.2849652 C 2.9787408,4.603801 3.3329501,3.8826167 3.9369576,3.337947 3.9902736,3.289869 4.0789084,3.308797 4.1506618,3.31116 4.2398188,3.3141 4.3564762,3.4211139 4.4148774,3.353683 4.4906027,3.2662505 4.4145334,3.1223503 4.4143747,3.0066837 4.5710144,2.8336872 4.7276543,2.6606904 4.884294,2.4876936 5.1038974,2.2328299 5.366313,2.0093298 5.5431041,1.7231025 6.2758012,0.53685386 5.2892237,1.079705 6.7634585,0.38432856 6.9355091,0.30317458 7.1176961,0.21622875 7.3079027,0.21325207 c 0.11206,-0.001754 0.2103993,0.22925511 0.2968315,0.15791074 0.084567,-0.0698047 -0.076361,-0.20558713 -0.1145407,-0.30838069 0.045397,-0.15387305 0.090794,-0.30774611 0.1361903,-0.46161916 0.0058,-0.0253757 0.3646654,0.0566351 0.3588665,0.0820108 v 0 C 7.9289004,-0.14940857 7.8725505,0.01800906 7.8162009,0.18542668 6.9895203,1.0219178 8.0133612,0.07045221 7.0076123,0.64225426 6.5946038,0.87706336 5.9614424,1.4338425 5.6580267,1.7996272 5.4544862,2.0450068 5.296459,2.324821 5.1156753,2.5874179 4.9855302,2.7918047 4.8859204,3.0192122 4.7252403,3.2005783 3.9859055,4.0350953 4.5244194,3.46081 4.2159039,3.4644263 4.2015502,3.4645946 4.2017063,3.4895618 4.1925147,3.5005896 3.664617,4.1340658 3.1880426,4.6854221 2.6424806,5.323006 2.6397906,5.328776 2.5581586,5.290737 2.5608486,5.284965 Z"
         id="path2625"
         style="opacity:1;vector-effect:none;fill:#000000;fill-opacity:0.99500002;fill-rule:nonzero;stroke:none;stroke-width:0.05;stroke-linecap:round;stroke-linejoin:round;stroke-miterlimit:4;stroke-dasharray:none;stroke-dashoffset:0;stroke-opacity:1;paint-order:fill markers stroke" />
      <path
         inkscape:connector-curvature="0"
         d="m 1.4873434,65.132914 c 0.9314878,-0.174111 0.6854656,-1.155089 1.1388612,-1.643697 0.06139,-0.06616 0.1036227,0.169649 0.083385,0.257605 -0.020739,0.09014 -0.1013904,0.174182 -0.1893279,0.202845 -0.054739,0.01784 0.033896,-0.11094 0.06183,-0.161286 0.069818,-0.125856 0.1535105,-0.243496 0.2302652,-0.365246 0.7803684,-0.517572 0.9206023,-0.4736 1.3811705,-1.267154 0.038386,-0.06614 -0.050328,-0.185992 0.012865,-0.229065 0.073846,-0.05033 0.1965738,0.09685 0.2651697,0.03956 0.2396996,-0.20019 -0.4513794,-0.402231 0.2171455,-0.125051 0.1433435,-0.432706 0.042725,-0.433156 0.4516819,-0.615805 0.053465,-0.02388 0.1581977,0.03173 0.1739232,-0.02468 0.018232,-0.0654 -0.080971,-0.109009 -0.121454,-0.163518 0.0061,-0.02044 0.2949169,0.06569 0.2888256,0.08612 v 0 c 0.00606,0.415722 -0.1115641,0.293354 -0.4143924,0.500934 -0.1213981,0.08322 -0.2219704,0.193335 -0.3329552,0.290003 -0.03471,0.04566 -0.070179,0.09076 -0.1041322,0.136984 -0.021221,0.02889 -0.025832,0.09312 -0.061352,0.08831 -0.056658,-0.0077 -0.1084452,-0.167598 -0.1282233,-0.113942 -0.041313,0.112084 0.096657,0.251677 0.038907,0.356247 -0.3190792,0.577767 -0.9636945,0.914891 -1.4766971,1.263299 -0.2334238,0.144571 -0.4282525,0.396391 -0.7002711,0.433715 -0.1113077,0.01527 -0.060414,-0.239656 -0.00436,-0.337029 0.065143,-0.113167 0.1940305,-0.217873 0.324601,-0.219293 0.7897755,-0.0086 0.2406554,0.670256 0.010887,0.903962 -0.3073567,0.312624 -0.7029291,0.524123 -1.0543933,0.786183 -0.00565,0.0065 -0.097618,-0.07348 -0.091961,-0.07999 z"
         id="path2627"
         style="opacity:1;vector-effect:none;fill:#000000;fill-opacity:0.99500002;fill-rule:nonzero;stroke:none;stroke-width:0.05;stroke-linecap:round;stroke-linejoin:round;stroke-miterlimit:4;stroke-dasharray:none;stroke-dashoffset:0;stroke-opacity:1;paint-order:fill markers stroke" />
      <path
         inkscape:connector-curvature="0"
         d="m 1.1539885,70.514509 c 1.1016412,0.528751 1.3528118,-0.80926 2.1086091,-0.982811 0.164985,-0.03788 -0.402156,0.858502 -0.5912228,0.398413 -0.047962,-0.116716 0.1034989,-0.237681 0.1952268,-0.324335 0.2174568,-0.205427 0.478672,-0.358923 0.7180082,-0.538384 0.2581744,-0.08535 0.5163487,-0.170699 0.7745228,-0.256046 0.059265,-0.003 0.2289302,-0.03926 0.1777963,-0.0091 -0.1222733,0.07201 -0.6745928,0.280398 -0.8512715,0.178351 -0.09892,-0.05714 -0.1714164,-0.219118 -0.1198613,-0.321059 0.1109062,-0.219289 0.3582993,-0.336415 0.5374489,-0.504624 0.1711537,-0.08977 0.6992094,-0.475173 0.9921351,-0.306036 0.063336,0.03657 -0.059446,0.133647 -0.08917,0.200473 -0.021122,0.009 -0.1479116,-0.289735 -0.1267902,-0.298702 v 0 c 0.083948,0.05049 0.2635535,0.0542 0.2518449,0.151464 -0.03753,0.31175 -1.0014555,-0.0041 -0.7735075,0.537649 -0.156116,0.04619 -0.3169721,0.07864 -0.4683487,0.138562 -0.040002,0.01585 -0.1394418,0.07851 -0.096944,0.08521 0.4026122,0.06343 0.43644,-0.232508 0.7847584,0.177247 0.034082,0.04009 -0.084709,0.06246 -0.1273622,0.09328 -0.2071558,0.149685 -0.4147077,0.298818 -0.6220614,0.448228 -0.279446,0.109524 -0.5508648,0.242292 -0.8383383,0.328578 -0.082455,0.02474 -0.1795309,0.03539 -0.2582662,5.29e-4 -0.044983,-0.0199 0.088784,-0.06218 0.1372926,-0.05406 0.2048655,0.03431 0.684331,-0.01156 0.5974548,0.177125 -0.3255671,0.707075 -2.0107989,0.03032 -2.138459,0.938366 -0.018267,0.01228 -0.1917611,-0.246049 -0.1734954,-0.258316 z"
         id="path2629"
         style="opacity:1;vector-effect:none;fill:#000000;fill-opacity:0.99500002;fill-rule:nonzero;stroke:none;stroke-width:0.05;stroke-linecap:round;stroke-linejoin:round;stroke-miterlimit:4;stroke-dasharray:none;stroke-dashoffset:0;stroke-opacity:1;paint-order:fill markers stroke" />
      <path
         inkscape:connector-curvature="0"
         d="m 1.9123527,74.964629 c 0.4779603,-0.390173 0.9230789,-0.824452 1.4338811,-1.170519 0.3071481,-0.208092 0.6339697,-0.450577 1.0037257,-0.480951 0.1379111,-0.01132 0.2329722,0.273071 0.1529148,0.385937 -0.1910601,0.269359 -0.536064,0.387461 -0.8205067,0.555244 -0.1215933,0.07172 -0.3652893,0.298632 -0.3921115,0.160033 -0.055018,-0.284298 0.1752304,-0.551998 0.2628456,-0.827998 0.013536,-0.01154 1.1392987,-1.110096 1.489692,-1.018667 0.175946,0.04591 0.2833512,0.334576 0.2129485,0.50223 -0.1088813,0.259289 -0.4332001,0.358719 -0.6498002,0.53808 -0.016573,0.01722 -0.26015,-0.217178 -0.2435754,-0.2344 v 0 c 0.1880936,-0.117903 0.37305,-0.240964 0.5642805,-0.353708 0.1009785,-0.05953 0.4133639,-0.22117 0.3117316,-0.162761 -0.1716522,0.09865 -0.3479289,0.189032 -0.5218933,0.283546 -0.3228419,0.186777 -0.6456836,0.373557 -0.9685255,0.560335 -0.2027359,0.131723 -0.4193855,0.244178 -0.6082078,0.395171 -0.072947,0.05833 0.1734974,-0.0701 0.2561334,-0.113631 0.2472396,-0.130254 0.4648083,-0.327946 0.7327447,-0.407339 0.156446,-0.04636 0.6309842,-0.03163 0.4873614,0.04581 -2.8178627,1.519354 0.8796732,-1.643634 -2.4487832,1.577919 -0.016568,0.01802 -0.2714252,-0.216305 -0.2548557,-0.234326 z"
         id="path2631"
         style="opacity:1;vector-effect:none;fill:#000000;fill-opacity:0.99500002;fill-rule:nonzero;stroke:none;stroke-width:0.05;stroke-linecap:round;stroke-linejoin:round;stroke-miterlimit:4;stroke-dasharray:none;stroke-dashoffset:0;stroke-opacity:1;paint-order:fill markers stroke" />
      <path
         inkscape:connector-curvature="0"
         d="m 1.992975,81.535749 c 1.4366671,-1.804117 0.6920267,-1.09718 2.1322509,-2.244199 0.092144,-0.07338 0.203295,-0.312121 0.2766155,-0.219927 0.1006549,0.126569 0.038096,0.359564 -0.069707,0.4801 -0.082128,0.09183 -0.3349085,0.129178 -0.3694316,0.01093 -0.07119,-0.243869 0.1031793,-0.497506 0.1547688,-0.746257 0.2615769,-0.232614 0.5105691,-0.480203 0.7847304,-0.697844 0.1422609,-0.112932 0.2792465,-0.297241 0.4607724,-0.290888 0.1102497,0.0039 0.1555437,0.209095 0.1132334,0.310978 -0.062797,0.151209 -0.2449211,0.217744 -0.3744179,0.317939 -0.094785,0.07334 -0.2104406,0.284303 -0.2974764,0.201917 -0.1422294,-0.134631 -0.067143,-0.385887 -0.1007139,-0.578832 0.010007,-0.01897 0.2781417,0.122558 0.2681349,0.141518 v 0 c -0.097096,0.05261 -0.1915039,0.110522 -0.2912878,0.157837 -0.067895,0.0322 0.1341295,-0.0689 0.1954184,-0.112376 0.1422648,-0.100912 0.2518717,-0.25576 0.4140546,-0.319942 0.078081,-0.0309 0.2717028,-0.0204 0.2448714,0.05918 -0.1524477,0.452097 -1.1277566,0.352566 -0.9960737,1.027878 -0.4873863,0.175638 -1.0202643,0.206785 -0.3438086,0.357052 0.1280859,0.02845 0.2825978,-0.03312 0.3915942,0.03992 0.062343,0.04178 -0.1453102,0.04341 -0.2096842,0.08198 -0.3475077,0.208241 -0.736647,0.36975 -1.0227733,0.656559 -0.4533143,0.45439 -0.775421,1.023024 -1.1631313,1.534538 -0.011883,0.014 -0.2098223,-0.154051 -0.1979396,-0.168048 z"
         id="path2633"
         style="opacity:1;vector-effect:none;fill:#000000;fill-opacity:0.99500002;fill-rule:nonzero;stroke:none;stroke-width:0.05;stroke-linecap:round;stroke-linejoin:round;stroke-miterlimit:4;stroke-dasharray:none;stroke-dashoffset:0;stroke-opacity:1;paint-order:fill markers stroke" />
      <path
         inkscape:connector-curvature="0"
         d="m 1.00372,86.394631 c 0.6158984,-0.67456 1.1160524,-1.443299 1.7039153,-2.140503 0.1020273,-0.121004 0.1940322,-0.2605 0.3301495,-0.34127 0.1192453,-0.07076 0.2664563,-0.100732 0.4049937,-0.09495 0.095746,0.004 0.1888368,0.18691 0.2599827,0.122712 0.1828938,-0.165037 0.2229332,-0.439373 0.3344,-0.659062 0.6331424,-0.503332 0.8863134,-0.473895 0.9867181,-1.253183 0.00583,-0.04525 -0.1073547,-0.107452 -0.121044,-0.06393 -0.026006,0.08269 0.041135,0.168408 0.061702,0.252611 -0.00241,0.005 -0.072954,-0.02898 -0.070552,-0.03397 v 0 c 0.10629,-0.106122 0.1742448,-0.277831 0.31887,-0.318362 0.072655,-0.02037 0.018283,0.151106 0.010237,0.226128 -0.1114768,1.03954 -0.015968,0.650711 -0.844642,1.503426 -0.2551152,0.188294 -0.4894821,0.408554 -0.7653457,0.56488 -0.113761,0.06447 -0.2593723,0.12894 -0.3827864,0.08574 -0.07005,-0.02453 0.03901,-0.279996 -0.00793,-0.222512 -0.094634,0.115879 -0.068853,0.298733 -0.1544955,0.421407 -0.5415015,0.775647 -1.3738373,1.325038 -1.9031458,2.105165 -0.010914,0.01138 -0.17193654,-0.142949 -0.1610233,-0.154337 z"
         id="path2635"
         style="opacity:1;vector-effect:none;fill:#000000;fill-opacity:0.99500002;fill-rule:nonzero;stroke:none;stroke-width:0.05;stroke-linecap:round;stroke-linejoin:round;stroke-miterlimit:4;stroke-dasharray:none;stroke-dashoffset:0;stroke-opacity:1;paint-order:fill markers stroke" />
      <path
         inkscape:connector-curvature="0"
         d="m 103.6113,5.304397 c 0.88372,-0.6042048 1.61446,-1.4013225 2.46744,-2.0440882 0.14993,-0.1129803 0.32321,-0.1913062 0.48039,-0.2939675 0.0878,-0.057347 0.16303,-0.1334407 0.25396,-0.1856845 0.0263,-0.015103 0.0702,0.010808 0.0901,-0.012023 0.18008,-0.2061972 0.32909,-0.4375981 0.49363,-0.6563971 0.17767,-0.4864578 0.25062,-1.0755598 0.75935,-1.35998825 0.18252,-0.10204699 0.40774,-0.0930929 0.61104,-0.14204752 0.0989,-0.0238167 0.30687,0.0248473 0.29553,-0.0762527 -0.0112,-0.10010634 -0.20851,0.0795231 -0.29991,0.0371856 -0.0825,-0.0381974 -0.0889,-0.15856106 -0.1333,-0.2378416 -0.003,-0.0132879 0.18479,-0.0574646 0.18792,-0.0441767 v 0 c 0.0178,0.0422241 0.0359,0.0843054 0.0533,0.12667218 0.042,0.10208485 0.13929,0.19720118 0.12505,0.30667679 -0.007,0.054064 -0.10827,-0.0287217 -0.16222,-0.0208775 -0.19335,0.0281106 -0.4284,-0.004773 -0.57207,0.1276364 -0.37385,0.3445497 0.16219,1.2643619 -0.68298,1.3637557 -0.16293,0.2347076 -0.33026,0.466426 -0.4888,0.7041229 -0.0476,0.071338 -0.0523,0.1845617 -0.12921,0.2224461 -0.76218,0.37535 0.37486,-0.8456195 -0.74595,0.250962 -3.14363,3.0756902 3.36205,-2.5005932 -2.32101,2.2126032 -0.0197,0.019965 -0.30206,-0.2587511 -0.28235,-0.278716 z"
         id="path2637"
         style="opacity:1;vector-effect:none;fill:#000000;fill-opacity:0.99500002;fill-rule:nonzero;stroke:none;stroke-width:0.05;stroke-linecap:round;stroke-linejoin:round;stroke-miterlimit:4;stroke-dasharray:none;stroke-dashoffset:0;stroke-opacity:1;paint-order:fill markers stroke" />
      <path
         inkscape:connector-curvature="0"
         d="m 104.95202,8.2472715 c 0.67864,-0.1752251 1.24906,-0.3751881 2.03591,-0.5256755 0.3946,-0.075465 0.92106,-0.1595908 1.4287,-0.1369287 0.28595,0.012766 -0.001,0.145436 -0.2104,0.1913169 -0.44253,0.097311 -1.0675,0.1406949 -1.60772,0.2084683 -0.30971,0.038855 -0.65034,0.1568903 -0.9416,0.1113596 -0.28095,-0.043918 0.13652,-0.1510167 0.2049,-0.2265251 0.26044,-0.069355 1.54211,-0.4738835 2.30708,-0.4850726 0.21877,-0.0032 0.27344,0.092324 0.21604,0.1400131 -0.11347,0.094295 -0.45639,0.166142 -0.68459,0.2492129 -0.0187,0.00581 -0.38341,-0.053573 -0.36477,-0.059387 v 0 c 0.18635,-0.072948 0.25519,-0.1698998 0.55904,-0.2188449 0.20324,-0.032739 0.88457,-0.039022 0.74855,0.00821 -0.53334,0.1851823 -2.48159,0.028443 -2.23738,0.4293939 -0.32493,0.031701 -0.64374,0.1234059 -0.97479,0.095102 -0.31811,-0.027199 0.62072,-0.063183 0.91963,-0.099817 0.53676,-0.065781 1.03453,-0.1477703 1.58561,-0.2072202 0.2612,-0.028177 1.01983,-0.1041809 0.83511,-0.05392 -0.30436,0.082812 -0.86826,0.094229 -1.23553,0.1628695 -0.79481,0.1485432 -1.48623,0.3231283 -2.22938,0.4846924 -0.021,0.00565 -0.3755,-0.061594 -0.35441,-0.067243 z"
         id="path2639"
         style="opacity:1;vector-effect:none;fill:#000000;fill-opacity:0.99500002;fill-rule:nonzero;stroke:none;stroke-width:0.05;stroke-linecap:round;stroke-linejoin:round;stroke-miterlimit:4;stroke-dasharray:none;stroke-dashoffset:0;stroke-opacity:1;paint-order:fill markers stroke" />
      <path
         inkscape:connector-curvature="0"
         d="m 103.14227,13.448895 c 2.25084,-1.27314 0.8472,-0.331847 2.52131,-1.760396 0.11069,-0.09445 0.21146,-0.23266 0.3555,-0.253352 0.1003,-0.01441 -0.10012,0.25715 -0.19794,0.230716 -0.0914,-0.0247 -0.0701,-0.220868 5.2e-4,-0.284084 0.26475,-0.237381 0.61302,-0.360527 0.91952,-0.540791 3.08937,-3.8896714 -1.71201,1.886833 1.86353,-1.5257704 0.13126,-0.1252797 0.012,-0.3659907 0.0597,-0.5410721 0.0106,0.068387 0.0212,0.1367742 0.0318,0.2051611 -0.005,0.014814 -0.0129,0.059927 -0.015,0.044441 -0.0141,-0.1005112 -0.0143,-0.2024933 -0.0214,-0.30374 0.0619,-0.096891 0.12384,-0.193783 0.18576,-0.2906747 0.0213,-0.027764 0.41391,0.2729187 0.39265,0.3006833 v 0 c -0.1196,0.064368 -0.2392,0.1287354 -0.35881,0.193103 -0.12214,-0.066696 -0.28064,-0.090504 -0.36643,-0.2000872 -0.062,-0.079233 0.1981,0.047829 0.28582,0.097117 0.0864,0.048525 0.24997,0.094795 0.22747,0.19127 -0.0387,0.1660247 -0.24065,0.2416082 -0.35741,0.3658293 -1.14098,1.2138707 -0.41536,0.5624509 -1.75618,1.6141877 -0.28634,0.195132 -0.55732,0.414957 -0.859,0.585395 -0.0758,0.04281 -0.34413,0.04804 -0.25715,0.04517 0.13832,-0.0046 0.35025,-0.174066 0.41211,-0.05028 0.0788,0.157773 -0.0569,0.37854 -0.19055,0.493629 -0.78187,0.673272 -1.928,0.834144 -2.65659,1.588728 -0.0145,0.01549 -0.23358,-0.189698 -0.21907,-0.205189 z"
         id="path2641"
         style="opacity:1;vector-effect:none;fill:#000000;fill-opacity:0.99500002;fill-rule:nonzero;stroke:none;stroke-width:0.05;stroke-linecap:round;stroke-linejoin:round;stroke-miterlimit:4;stroke-dasharray:none;stroke-dashoffset:0;stroke-opacity:1;paint-order:fill markers stroke" />
      <path
         inkscape:connector-curvature="0"
         d="m 104.10539,18.488795 c 0.43246,-0.247318 0.90314,-0.437372 1.29737,-0.741953 0.24992,-0.19309 0.36304,-0.52649 0.60584,-0.728467 0.048,-0.03997 0.0769,0.121404 0.054,0.179555 -0.0307,0.07785 -0.37851,0.830875 -0.72222,0.609158 -0.0893,-0.05763 0.0438,-0.208052 0.0658,-0.312078 2.30664,-1.517701 -0.81735,0.657879 1.34263,-1.273751 0.0879,-0.07863 0.26142,-0.14021 0.3486,-0.06076 0.22253,0.202812 -0.21167,0.489409 -0.42696,0.469815 -0.10329,-0.0094 -0.15923,-0.132963 -0.23885,-0.199445 0.24625,-0.245036 0.91187,-1.222546 1.35483,-1.114249 0.13243,0.03238 0.17399,0.209932 0.26099,0.314898 0.003,0.01351 -0.18804,0.05546 -0.19101,0.04195 v 0 c 0.002,-0.07749 0.0742,-0.267963 0.005,-0.232467 -0.10703,0.05514 -0.0828,0.236345 -0.1713,0.317989 -0.28046,0.258783 -0.70093,0.336609 -0.9334,0.662891 -0.11276,-0.02291 -0.43292,-0.0033 -0.33828,-0.06872 0.0907,-0.06275 0.86938,-0.01607 0.94506,0.06219 0.0787,0.08144 -0.24732,-0.01138 -0.3343,0.0612 -1.55572,1.298068 0.33969,0.3384 -1.53168,1.132116 -0.10594,0.0036 -0.30301,0.115629 -0.31782,0.01067 -0.0299,-0.211635 0.75681,-0.532261 0.78034,-0.532291 0.14841,-1.89e-4 0.48168,0.134044 0.37608,0.238329 -0.24996,0.246844 -0.65882,0.244131 -0.98823,0.366197 -0.34084,0.355151 -0.68169,0.710301 -1.02254,1.065452 -0.019,0.01557 -0.23918,-0.25266 -0.22021,-0.268231 z"
         id="path2643"
         style="opacity:1;vector-effect:none;fill:#000000;fill-opacity:0.99500002;fill-rule:nonzero;stroke:none;stroke-width:0.05;stroke-linecap:round;stroke-linejoin:round;stroke-miterlimit:4;stroke-dasharray:none;stroke-dashoffset:0;stroke-opacity:1;paint-order:fill markers stroke" />
      <path
         inkscape:connector-curvature="0"
         d="m 105.66869,24.051828 c 0.57781,-0.66644 1.57808,-0.85611 2.19227,-1.491744 0.0864,-0.08938 -0.0224,-0.331882 0.0988,-0.359526 0.1068,-0.02436 0.0982,0.217229 0.066,0.321938 -0.0158,0.05145 -0.14598,-0.02614 -0.14044,-0.07968 0.008,-0.07742 0.11047,-0.109687 0.1657,-0.164531 0.12016,-0.104765 0.24032,-0.209531 0.36048,-0.314297 0.0694,-0.07827 0.12957,-0.165893 0.2083,-0.234794 0.0101,-0.0088 0.0242,0.02142 0.0208,0.03435 -0.0195,0.07362 -0.0584,0.140678 -0.0857,0.211727 -0.007,0.01832 -0.007,0.07265 -0.0175,0.05623 -0.0572,-0.08722 -0.0878,-0.189217 -0.13174,-0.283825 0.0692,-0.08192 0.13836,-0.163838 0.20753,-0.245756 0.0213,-0.0151 0.23485,0.286703 0.21351,0.3018 v 0 c -0.0971,0.06933 -0.19422,0.138655 -0.29133,0.207983 -0.09,-0.04898 -0.23555,-0.05043 -0.26994,-0.146931 -0.051,-0.143001 0.92471,-0.439442 0.63824,0.04822 -0.0709,0.120704 -0.20156,0.197414 -0.32017,0.271771 -0.14605,0.09156 -0.31143,0.147873 -0.46715,0.22181 -0.12886,-0.04552 -0.30225,-0.02903 -0.38659,-0.136567 -0.0461,-0.05878 0.0725,-0.180538 0.14636,-0.169711 0.1994,0.02921 0.45486,0.08806 0.54076,0.27036 0.0825,0.175047 -0.027,0.410867 -0.14895,0.561092 -0.44315,0.54578 -1.82676,1.162497 -2.29732,1.409317 -0.0205,0.02134 -0.32224,-0.267906 -0.30178,-0.289245 z"
         id="path2645"
         style="opacity:1;vector-effect:none;fill:#000000;fill-opacity:0.99500002;fill-rule:nonzero;stroke:none;stroke-width:0.05;stroke-linecap:round;stroke-linejoin:round;stroke-miterlimit:4;stroke-dasharray:none;stroke-dashoffset:0;stroke-opacity:1;paint-order:fill markers stroke" />
      <path
         inkscape:connector-curvature="0"
         d="m 108.64439,27.953226 c -0.84084,0.02641 -0.99481,1.339578 -1.74293,1.556367 -0.11399,0.03303 -0.16809,-0.222041 -0.12599,-0.33301 0.41603,-1.714408 0.55838,-0.634122 0.43329,-0.463566 -0.12945,0.176493 -0.2773,0.338727 -0.41595,0.508092 -0.20518,0.34811 -0.48545,1.203532 -1.10253,1.208146 -0.0949,7.94e-4 0.007,-0.198305 0.0575,-0.278738 0.07,-0.111943 0.21685,-0.160999 0.28736,-0.272632 0.0227,-0.03595 -0.0172,-0.158607 -0.0383,-0.12168 -0.0692,0.12119 -0.0807,0.267179 -0.12104,0.400767 -0.1385,-0.630676 -0.72018,1.49963 -0.53672,1.102363 0.0134,0.0065 -0.0789,0.196054 -0.0923,0.189524 v 0 c -0.15062,-0.08351 -0.44951,-0.07832 -0.45186,-0.250529 -0.007,-0.504761 1.19834,-0.55323 0.82132,-1.272373 0.20949,-0.06126 0.41138,-0.206314 0.62848,-0.18378 0.0824,0.0085 -0.0194,0.165934 -0.0467,0.244166 -0.0514,0.147134 -0.0502,0.355338 -0.18803,0.428061 -0.14236,0.07511 -0.43056,0.07685 -0.47664,-0.07738 -0.0543,-0.18184 0.17951,-0.340064 0.31103,-0.476891 0.25732,-0.267697 0.56335,-0.48387 0.84502,-0.725805 0.22165,-0.18548 0.39863,-0.444148 0.66493,-0.556445 0.0814,-0.03433 0.1951,0.121539 0.16744,0.205441 -0.0717,0.217567 -0.2238,0.422106 -0.41563,0.547333 -0.11528,0.07525 -0.47948,0.114089 -0.41295,-0.0064 0.13529,-0.245089 0.48739,-0.287695 0.68486,-0.486135 0.34144,-0.343117 0.61222,-0.749953 0.91834,-1.124929 0.017,-0.02461 0.36502,0.215453 0.34804,0.240064 z"
         id="path2647"
         style="opacity:1;vector-effect:none;fill:#000000;fill-opacity:0.99500002;fill-rule:nonzero;stroke:none;stroke-width:0.05;stroke-linecap:round;stroke-linejoin:round;stroke-miterlimit:4;stroke-dasharray:none;stroke-dashoffset:0;stroke-opacity:1;paint-order:fill markers stroke" />
      <path
         inkscape:connector-curvature="0"
         d="m 108.55437,33.249356 c -0.35626,0.433263 -0.66554,0.909879 -1.06879,1.299792 -0.21025,0.203296 -0.45686,0.437523 -0.74863,0.457544 -0.14624,0.01003 0.006,-0.363212 0.14263,-0.415959 0.10509,-0.04053 0.17384,0.194754 0.14716,0.304186 -0.13921,0.570966 -0.59461,0.757174 -1.02535,1.056825 -0.76649,0.939731 -0.60469,-0.158019 -0.44593,-0.181173 0.33304,-0.04857 0.13423,0.575289 0.1274,0.585398 -0.11705,0.173369 -0.35212,0.257903 -0.53646,0.33791 0.0278,0.005 0.0738,-0.01156 0.0834,0.015 0.0581,0.160219 0.0207,0.429289 -0.062,0.572008 -0.0376,0.06497 -0.11326,0.09858 -0.16989,0.147865 -0.0129,0.01315 -0.19901,-0.168949 -0.18613,-0.182112 v 0 c 0.0573,-0.01008 0.1355,0.01511 0.17195,-0.03026 0.0413,-0.05141 0.003,-0.132051 0.0111,-0.197538 0.0543,-0.455424 0.0904,-0.128648 -0.064,-0.659847 0.0907,0.03019 0.18002,0.116094 0.27216,0.09057 0.0996,-0.0276 0.14226,-0.150045 0.21338,-0.225068 0.058,-0.04408 0.10362,-0.113734 0.1741,-0.132236 0.0592,-0.01553 0.22824,0.07606 0.17921,0.03949 -0.49728,-0.37087 -0.73281,-0.152781 0.001,-0.421712 2.0371,-0.859732 -0.16148,0.272293 0.96935,-0.849405 0.0834,-0.08272 0.46803,-0.03581 0.35057,-0.03574 -0.17017,9.8e-5 -0.53594,0.203902 -0.50926,0.03584 0.1324,-0.83389 2.13955,-0.71056 1.86115,-1.718207 0.008,-0.0079 0.11902,0.09895 0.11147,0.106836 z"
         id="path2649"
         style="opacity:1;vector-effect:none;fill:#000000;fill-opacity:0.99500002;fill-rule:nonzero;stroke:none;stroke-width:0.05;stroke-linecap:round;stroke-linejoin:round;stroke-miterlimit:4;stroke-dasharray:none;stroke-dashoffset:0;stroke-opacity:1;paint-order:fill markers stroke" />
      <path
         inkscape:connector-curvature="0"
         d="m 108.38784,39.59112 c -0.60574,0.335976 -0.85319,0.317471 -1.13755,0.86718 -0.0205,0.03953 0.0834,-0.03514 0.11707,-0.06424 0.061,-0.05266 0.0948,-0.135938 0.16349,-0.178049 0.0273,-0.01675 0.10675,-0.0092 0.094,0.02021 -0.0716,0.165177 -0.19865,0.300284 -0.29797,0.450424 -0.67121,0.414229 -0.45038,0.136859 -0.73078,0.82459 -0.0194,0.04763 -0.005,0.15239 -0.0557,0.143889 -0.1062,-0.01781 -0.17784,-0.269658 -0.25661,-0.196231 -0.10879,0.101422 0.0208,0.300852 -0.0114,0.446061 -0.0332,0.149783 -0.12087,0.28203 -0.18131,0.423045 -0.0973,0.01445 -0.23309,0.122168 -0.29202,0.04336 -0.0519,-0.06942 0.1477,-0.09619 0.202,-0.163751 0.0123,-0.0154 -0.0574,-0.03673 -0.0567,-0.01699 0.005,0.140589 0.12677,0.287525 0.0699,0.416169 -0.0407,0.09204 -0.19877,0.04098 -0.29045,0.08251 -0.11108,0.05033 -0.20819,0.127048 -0.31229,0.190574 0.01,0.06067 0.004,0.126188 0.0297,0.182023 0.0216,0.04686 0.1923,-0.04895 0.15415,-0.01421 -0.0477,0.04349 -0.12271,0.052 -0.166,0.09994 -0.0348,0.03852 -0.0331,0.09867 -0.0556,0.145428 -0.0158,0.03281 -0.0392,0.0614 -0.0588,0.0921 0.0834,0.259178 0.0396,0.130895 0.13138,0.384889 0.009,0.01762 -0.24,0.148559 -0.24926,0.130932 v 0 c -0.29651,-0.368414 -0.24638,-0.158774 -0.12963,-0.633526 0.0533,-0.103336 0.0519,-0.266621 0.15977,-0.310005 7.9e-4,-2.64e-4 0.4814,0.18246 0.25392,0.359778 -0.25794,0.20106 -0.31202,-0.206481 -0.31064,-0.290311 0.002,-0.09688 0.0493,-0.187405 0.074,-0.281107 0.10269,-0.108124 0.75484,-0.921218 0.84906,-0.230375 0.0264,0.193495 -0.90036,-0.416528 -0.36326,-0.468873 0.68245,-0.638199 -0.0837,-0.05149 0.86472,-0.346684 0.087,-0.02707 -0.20752,0.02222 -0.26961,-0.0444 -0.0778,-0.08348 -0.11412,-0.223092 -0.0816,-0.332471 0.12342,-0.415086 0.59307,-0.670798 0.68437,-1.104265 0.26836,0.07694 0.53375,0.165151 0.80509,0.230826 0.0193,0.0047 -0.0192,-0.04968 -0.0385,-0.04528 -0.17483,0.03982 -0.33119,0.179332 -0.51026,0.170255 -0.0707,-0.0036 -0.096,-0.13316 -0.072,-0.199769 0.16293,-0.453123 0.76145,-0.680685 0.85434,-1.164857 0.027,-0.02977 0.44792,0.351449 0.42097,0.381217 z"
         id="path2651"
         style="opacity:1;vector-effect:none;fill:#000000;fill-opacity:0.99500002;fill-rule:nonzero;stroke:none;stroke-width:0.05;stroke-linecap:round;stroke-linejoin:round;stroke-miterlimit:4;stroke-dasharray:none;stroke-dashoffset:0;stroke-opacity:1;paint-order:fill markers stroke" />
      <path
         inkscape:connector-curvature="0"
         d="m 108.47563,45.446722 c -0.23121,0.410964 -0.42903,0.842584 -0.69362,1.232895 -0.11636,0.171659 -0.23439,0.414086 -0.44019,0.439663 -0.1359,0.01688 -0.21965,-0.225388 -0.19711,-0.360466 0.0368,-0.220435 0.22495,-0.386783 0.35244,-0.570338 0.0502,-0.07233 0.21834,-0.273211 0.17877,-0.194532 -0.0892,0.177443 -0.22021,0.330599 -0.33032,0.4959 -0.55294,0.333333 -0.22143,1.084414 -0.5501,1.505741 -0.0785,0.10068 -0.32053,0.156483 -0.38056,0.04378 -0.11154,-0.209434 -0.056,-0.488371 0.025,-0.711428 0.032,-0.0881 0.21496,-0.169253 0.26614,-0.09073 0.0643,0.0986 -0.0705,0.224599 -0.1057,0.336899 -0.0776,0.440963 -0.48875,0.71482 -0.63492,1.117553 -0.0234,0.06451 0.11896,0.234225 0.0617,0.196439 -0.15673,-0.103362 -0.30102,-0.242797 -0.38589,-0.410268 -0.024,-0.04736 0.0972,-0.119732 0.13578,-0.08328 0.0728,0.06876 0.0547,0.192677 0.0821,0.289015 -0.59603,1.144521 0.18268,-0.314661 -0.50589,0.855263 -0.0429,0.07294 -0.0447,0.171624 -0.10475,0.231309 -0.0582,0.05789 -0.1737,0.03449 -0.22609,0.09771 -0.0441,0.05327 -0.017,0.137319 -0.0255,0.205978 -0.0516,0.04907 -0.10316,0.09813 -0.15474,0.147196 -0.10002,0.110857 -0.186,0.233465 -0.28358,0.346344 -0.018,0.0208 -0.0705,0.08307 -0.0582,0.05844 0.0441,-0.0889 0.0561,-0.253768 0.15534,-0.254022 0.0903,-2.32e-4 0.0492,0.176081 0.0959,0.253376 0.0522,0.08639 0.13094,0.153644 0.1964,0.230465 -0.0615,0.08769 -0.1231,0.175374 -0.18465,0.263062 -0.003,0.01056 -0.15278,-0.03688 -0.14943,-0.04745 v 0 c 0.0253,-0.05924 0.0507,-0.118483 0.076,-0.177723 -0.0179,-0.06344 -0.0181,-0.134855 -0.0537,-0.190312 -0.30553,-0.475763 0.0429,0.467077 -0.2151,-0.362508 -0.003,-0.0073 -0.0301,0.0086 -0.0232,0.0049 0.12231,-0.06597 0.2682,-0.08465 0.38554,-0.158623 -0.004,-0.05142 -0.0375,-0.420962 -0.0283,-0.451456 0.0389,-0.128079 0.31564,-0.246369 0.37263,-0.317156 0.21131,-0.262509 0.28256,-0.623416 0.5602,-0.841584 0.10488,-0.02323 0.20985,-0.09329 0.31464,-0.06967 0.0514,0.01159 0.0902,0.121486 0.0466,0.151107 -0.10642,0.07229 -0.25484,0.109302 -0.3787,0.07451 -0.0561,-0.01574 0.0336,-0.112475 0.0615,-0.163621 0.20798,-0.381241 0.46243,-0.735923 0.66665,-1.119365 0.15957,-0.04375 0.31605,-0.161549 0.47872,-0.13126 0.0714,0.01331 0.0342,0.164555 -0.0156,0.21749 -0.0806,0.08566 -0.21807,0.0889 -0.32287,0.142275 -0.0538,0.02743 -0.17665,0.154427 -0.15163,0.09941 0.0935,-0.205713 0.83584,-1.234818 0.89702,-1.321535 0.18978,-0.123251 0.35125,-0.309417 0.56935,-0.369753 0.0761,-0.02103 -0.0291,0.156509 -0.0604,0.228952 -0.0755,0.174612 -0.13062,0.368025 -0.25863,0.508751 -0.0908,0.09984 -0.32486,0.305314 -0.36451,0.1763 -0.0554,-0.180197 0.16365,-0.340683 0.26515,-0.499544 0.25329,-0.396428 0.53189,-0.776105 0.79783,-1.164158 0.008,-0.01714 0.25035,0.09291 0.24257,0.110064 z"
         id="path2653"
         style="opacity:1;vector-effect:none;fill:#000000;fill-opacity:0.99500002;fill-rule:nonzero;stroke:none;stroke-width:0.05;stroke-linecap:round;stroke-linejoin:round;stroke-miterlimit:4;stroke-dasharray:none;stroke-dashoffset:0;stroke-opacity:1;paint-order:fill markers stroke" />
      <path
         inkscape:connector-curvature="0"
         d="m 108.36311,50.805823 c -0.83866,-0.285652 -0.42115,1.591786 -1.08128,1.680218 -0.16807,0.02252 -0.17026,-0.314293 -0.15836,-0.48345 0.005,-0.06832 0.20616,-0.127534 0.19658,-0.05972 -0.0422,0.298799 -0.15594,0.590719 -0.30837,0.851154 -0.16933,0.289303 -0.42839,0.51571 -0.64259,0.773565 -0.67967,1.282969 -0.58585,0.229571 -0.45956,0.132302 0.14191,-0.109294 0.33438,-0.132056 0.48964,-0.221369 0.11505,-0.06618 0.1857,-0.266851 0.3161,-0.242115 0.0986,0.01871 -0.0536,0.195956 -0.10495,0.282168 -0.11764,0.197469 -0.26561,0.375203 -0.39841,0.562805 0.0287,1.647219 -0.62827,0.157951 -0.47312,0.240716 0.44943,0.239739 0.1594,0.44373 -0.0378,0.68 -0.0974,0.11675 -0.20736,0.222499 -0.31103,0.333751 -0.10852,0.126851 -0.20845,0.261588 -0.32556,0.38056 -0.0769,0.07816 -0.19725,0.115052 -0.25441,0.208656 -0.0199,0.03258 0.0356,0.08147 0.0732,0.08803 0.0847,0.01479 0.49832,-0.159845 0.36417,0.212342 -0.0392,0.108823 -0.17171,0.155053 -0.25756,0.232579 0.55047,-0.0079 -0.60694,0.140295 -0.45298,0.19966 0.0643,0.02479 0.13485,-0.05351 0.2026,-0.041 0.17637,0.03256 0.10978,0.205039 0.10339,0.310732 7.9e-4,0.01714 -0.24167,0.02658 -0.24234,0.0094 v 0 c 0.007,0.0065 0.0287,0.02077 0.0195,0.01961 -0.0725,-0.009 -0.17058,0.01426 -0.21484,-0.0439 -0.0819,-0.107614 -0.12025,-0.254024 -0.11466,-0.389133 0.013,-0.313312 0.31744,-0.259705 0.51453,-0.288743 0.1127,-0.674232 -0.13366,0.573765 0.18041,0.03316 0.0907,-0.156146 -0.31488,-0.352565 -0.32797,-0.422865 -0.096,-0.516231 0.29579,-0.472776 0.64729,-0.588343 0.78292,-0.529236 0.1493,0.03372 0.43845,-0.567233 0.0256,-0.05322 0.18555,-0.06137 0.14395,-0.10329 -0.0681,-0.06866 -0.20929,0.01609 -0.28728,-0.04113 -0.19993,-0.146693 0.27044,-0.916599 0.39974,-0.627407 0.16385,-0.166489 0.28385,-0.392554 0.49154,-0.49947 0.12606,-0.0649 0.36744,-0.101899 0.42444,0.02793 0.0526,0.119864 -0.20007,0.168904 -0.30192,0.25114 -0.18564,0.149881 -0.32403,0.413432 -0.56051,0.445161 -0.16617,0.0223 -0.38483,-0.15005 -0.39,-0.31763 -0.007,-0.21277 0.24269,-0.3498 0.36403,-0.5247 0.9523,-1.1074 0.25721,-0.580565 1.44227,-1.012645 0.0166,-0.006 -0.0245,-0.03344 -0.042,-0.03212 -0.14107,0.01058 -0.39607,0.206272 -0.41912,0.0667 -0.10844,-0.656805 1.53675,-0.996948 1.02998,-1.711003 0.0138,-0.02297 0.33849,0.171916 0.32471,0.194874 z"
         id="path2655"
         style="opacity:1;vector-effect:none;fill:#000000;fill-opacity:0.99500002;fill-rule:nonzero;stroke:none;stroke-width:0.05;stroke-linecap:round;stroke-linejoin:round;stroke-miterlimit:4;stroke-dasharray:none;stroke-dashoffset:0;stroke-opacity:1;paint-order:fill markers stroke" />
      <path
         inkscape:connector-curvature="0"
         d="m 108.71675,58.170071 c -0.2993,0.412946 -0.57044,0.847852 -0.8979,1.238838 -0.15558,0.185748 -0.31381,0.405937 -0.54372,0.482412 -0.10247,0.03409 -0.23825,-0.115618 -0.23451,-0.223549 0.007,-0.215316 0.18394,-0.390009 0.26275,-0.590524 0.0211,-0.05378 0.024,-0.113043 0.036,-0.169563 -0.12081,0.278968 -0.24162,0.55794 -0.36243,0.836908 -0.2575,0.327049 -0.52978,0.642993 -0.77252,0.981144 -0.0975,0.135885 -0.0803,0.413065 -0.24583,0.437473 -0.13266,0.01958 -0.0543,-0.282967 0.007,-0.402236 0.11222,-0.218347 0.34973,-0.349432 0.48473,-0.554476 0.0337,-0.05116 0.19114,-1.391428 -0.0352,0.394078 -1.23019,1.354698 -0.30652,0.170087 -0.92044,1.314651 -0.0229,0.04265 -0.0863,0.130953 -0.1133,0.0908 -0.0647,-0.09612 -0.0119,-0.235963 -0.0563,-0.34294 -0.0142,-0.03419 -0.0934,-0.07674 -0.10323,-0.04104 -0.0468,0.169813 -0.0206,0.351682 -0.0308,0.527524 -0.96848,1.757622 0.26162,-0.351338 -0.8162,1.14654 -0.0314,0.04359 0.0131,0.206658 -0.0143,0.16048 -0.0922,-0.155215 -0.24347,-0.333872 -0.19124,-0.506671 0.0435,-0.143952 0.26305,-0.148842 0.40465,-0.199475 0.0396,-0.01418 -0.0607,0.05824 -0.0911,0.08736 0.12415,0.492783 -0.12108,0.666678 -0.40731,1.016354 -0.005,0.01378 -0.20025,-0.06129 -0.19494,-0.07508 v 0 c 0.22739,-0.505875 0.24082,-0.76921 0.8109,-0.98748 0.0282,0.0459 0.1174,0.09499 0.0846,0.137699 -0.13461,0.175104 -0.63826,0.305856 -0.81548,0.328256 -0.0638,0.0081 0.14172,-0.02908 0.17308,-0.08521 0.11027,-0.197355 0.10198,-0.451966 0.23084,-0.63772 0.15082,-0.217421 0.38954,-0.358243 0.58431,-0.537363 0.18504,-0.139428 0.36787,-0.281842 0.55512,-0.41828 0.0452,-0.03295 -0.0781,0.08394 -0.12877,0.107635 -0.0955,0.04464 -0.20988,0.04245 -0.30191,0.09378 -0.0495,0.02758 0.13345,0.02477 0.16875,-0.01953 0.32977,-0.413607 0.31468,-1.050168 0.79886,-1.37119 0.27108,-0.09389 0.52637,-0.278712 0.81324,-0.281654 0.0967,-0.0011 -0.0306,0.201983 -0.0949,0.274285 -0.17147,0.192868 -0.38177,0.349311 -0.59225,0.498626 -0.122,0.08654 -0.34017,0.342146 -0.39929,0.204753 -0.0706,-0.163954 0.19123,-0.301667 0.29512,-0.44681 0.24295,-0.33941 0.49671,-0.670943 0.74507,-1.006414 0.2574,-0.222242 0.49095,-0.475567 0.77222,-0.666723 0.0564,-0.03836 -0.0477,0.127886 -0.0728,0.191354 -0.0649,0.164267 -0.0914,0.350354 -0.19713,0.491832 -0.0545,0.07295 -0.28813,0.191024 -0.25104,0.107844 0.0963,-0.216077 0.29705,-0.368329 0.4483,-0.550249 0.33,-0.396909 0.66361,-0.790802 0.99542,-1.186204 0.0106,-0.01513 0.22467,0.13461 0.21408,0.149749 z"
         id="path2657"
         style="opacity:1;vector-effect:none;fill:#000000;fill-opacity:0.99500002;fill-rule:nonzero;stroke:none;stroke-width:0.05;stroke-linecap:round;stroke-linejoin:round;stroke-miterlimit:4;stroke-dasharray:none;stroke-dashoffset:0;stroke-opacity:1;paint-order:fill markers stroke" />
      <path
         inkscape:connector-curvature="0"
         d="m 109.05755,62.854463 c -0.66072,0.663456 -1.23275,1.313707 -2.00857,1.840813 -0.078,0.05298 -0.25381,0.155225 -0.2756,0.0635 -0.002,-0.0065 0.22576,-0.968103 0.58642,-0.364228 0.0788,0.131892 -0.0534,0.302564 -0.0802,0.453848 -0.47894,0.400859 -1.08237,0.633039 -1.56663,1.027332 -0.0462,0.03764 -0.0744,0.223782 -0.0708,0.164269 0.009,-0.142333 -0.0382,-0.349655 0.0864,-0.418981 0.11689,-0.06503 0.30428,0.04869 0.36433,0.168225 0.0656,0.13055 -0.0413,0.289263 -0.0619,0.433892 -0.29789,0.284581 -0.84864,0.840616 -1.2133,1.085554 -0.0597,0.04014 -0.27655,0.02813 -0.2092,0.05351 0.10897,0.04106 0.23634,-0.0288 0.34935,-7.93e-4 0.3639,0.09046 0.27358,0.143478 0.23486,0.417253 -0.1697,0.167669 -0.38783,0.413938 -0.61228,0.520941 -0.0761,0.03626 -0.20424,0.114535 -0.24908,0.04319 -0.0419,-0.06675 0.14446,-0.06315 0.21669,-0.09472 0.0157,0.01545 -0.20277,0.23736 -0.21846,0.221914 v 0 c -0.0408,-0.08243 -0.12398,-0.155345 -0.12231,-0.24729 0.004,-0.216829 0.33724,-0.361826 0.47584,-0.395939 0.0796,-0.0196 0.16307,0.01752 0.2446,0.02627 0.0225,-0.02588 0.0949,-0.05704 0.0675,-0.07766 -0.32989,-0.248319 -0.50378,0.08303 -0.59131,-0.559702 -0.0101,-0.0742 0.12578,-0.0818 0.18396,-0.12895 0.62069,-0.502984 0.51833,-0.435631 1.10359,-1.040754 0.11797,-0.0435 0.24504,-0.06759 0.35392,-0.130498 0.0522,-0.03017 -0.12261,0.05169 -0.17855,0.02917 -0.15017,-0.06048 -0.28018,-0.164373 -0.40701,-0.264988 -0.0159,-0.01262 0.0414,-0.0021 0.06,-0.01029 0.2597,-0.114308 0.53105,-0.208224 0.77304,-0.356385 0.27652,-0.169299 0.51542,-0.393507 0.77312,-0.590259 0.52626,-0.293315 0.0396,-0.07083 -0.24139,-0.163643 -0.0489,-0.01617 -0.10626,-0.108844 -0.0653,-0.140083 2.7689,-2.111703 -0.87003,1.255358 2.13793,-1.670436 0.007,-0.01133 0.16775,0.09449 0.16027,0.105828 z"
         id="path2659"
         style="opacity:1;vector-effect:none;fill:#000000;fill-opacity:0.99500002;fill-rule:nonzero;stroke:none;stroke-width:0.05;stroke-linecap:round;stroke-linejoin:round;stroke-miterlimit:4;stroke-dasharray:none;stroke-dashoffset:0;stroke-opacity:1;paint-order:fill markers stroke" />
      <path
         inkscape:connector-curvature="0"
         d="m 108.48266,69.457389 c -2.05142,-1.256966 -0.39865,1.119884 -0.88624,1.175758 -0.1322,0.01516 -0.18565,-0.205155 -0.21846,-0.334113 -0.026,-0.102126 0.0671,-0.416057 0.0542,-0.311465 -0.13249,1.076227 5.3e-4,0.606968 -0.73751,1.635107 -0.49977,0.394311 -0.57948,0.34204 -0.80235,0.92371 -0.0687,0.179367 -0.0698,0.379873 -0.13768,0.559554 -0.0544,0.143844 -0.15144,0.267682 -0.22577,0.402291 -0.3479,0.629989 -0.11045,0.337315 -0.65931,0.822892 0.46115,-0.183074 -0.35413,0.444444 -0.37028,0.288758 -0.007,-0.06685 0.0378,-0.152527 0.10136,-0.174284 0.0997,-0.0341 0.20961,0.02135 0.31441,0.03203 0.01,0.0028 -0.0296,0.140917 -0.0394,0.138131 v 0 c -0.11606,-0.01482 -0.73521,-0.02511 -0.54593,-0.255505 0.0843,-0.102651 0.22496,-0.141375 0.33744,-0.212064 0.15121,-0.08115 0.34265,-0.112559 0.45364,-0.243451 0.1119,-0.131956 0.10404,-0.330396 0.16894,-0.490768 0.0542,-0.133794 0.1279,-0.258847 0.18763,-0.39025 0.0821,-0.180546 0.15945,-0.363188 0.23765,-0.545438 0.0825,-0.192238 0.1323,-0.401415 0.24444,-0.578009 0.1163,-0.183139 0.28788,-0.32463 0.43182,-0.486944 0.44542,-0.711843 0.48383,-1.118405 1.39065,-1.291617 0.0249,-0.0048 -0.19943,0.615212 -0.37089,0.425942 -0.33491,-0.369678 1.65179,-1.338556 0.53848,-1.39623 0.0216,-0.0377 0.55477,0.268269 0.53313,0.305967 z"
         id="path2661"
         style="opacity:1;vector-effect:none;fill:#000000;fill-opacity:0.99500002;fill-rule:nonzero;stroke:none;stroke-width:0.05;stroke-linecap:round;stroke-linejoin:round;stroke-miterlimit:4;stroke-dasharray:none;stroke-dashoffset:0;stroke-opacity:1;paint-order:fill markers stroke" />
      <path
         inkscape:connector-curvature="0"
         d="m 108.19097,76.24379 c -0.34231,0.387829 -0.72605,0.742704 -1.02693,1.163484 -0.1099,0.153697 -0.004,0.490109 -0.18752,0.534922 -0.16289,0.03977 -0.23736,-0.258652 -0.27296,-0.422495 -0.0367,-0.168995 0.1109,-0.346247 0.0694,-0.514141 -0.0152,-0.06175 -0.1472,-0.01087 -0.18679,0.0389 -0.20701,0.260342 -0.34727,0.567399 -0.5209,0.851098 -0.56818,1.080045 -0.41187,1.008915 -1.1001,1.716463 -0.0709,0.07293 -0.16919,0.270976 -0.23567,0.193961 -0.12539,-0.145248 -0.0121,-0.392652 -0.088,-0.568883 -0.0363,-0.08426 -0.14553,-0.203737 -0.22519,-0.158229 -0.10705,0.06116 -0.0759,0.234614 -0.11384,0.351922 -0.17397,0.87951 -0.0536,0.499846 -0.37566,1.285878 -0.18801,0.458912 -0.0251,0.201356 -0.23845,-0.0872 -0.29611,-0.40055 -0.19043,0.03442 -0.1829,0.111792 0.1368,0.406384 -0.23009,0.722468 -0.24219,1.096621 -0.003,0.101838 0.18406,0.154072 0.16883,0.25482 -0.0136,0.09028 -0.14023,-0.12604 -0.17557,-0.210222 -0.0222,-0.05286 0.0103,-0.114194 0.0154,-0.171289 0.008,-0.01908 0.27713,0.08707 0.26962,0.106138 v 0 c -0.0322,0.137451 -0.0585,0.528455 -0.41037,0.308927 -0.0855,-0.05335 0.0136,-0.202078 0.0371,-0.300077 0.23286,-0.968729 0.18129,-0.214746 0.17393,-1.181676 0.14423,-0.0692 0.27272,-0.209101 0.43268,-0.207606 0.0746,7.94e-4 0.0915,0.140653 0.0708,0.21231 -0.0257,0.08886 -0.0982,0.200123 -0.19065,0.201689 -0.0692,0.0011 0.0281,-0.136824 0.0576,-0.199432 0.46179,-0.981525 0.20428,-0.112131 0.45855,-1.311087 0.16555,-0.13648 0.28553,-0.371124 0.49663,-0.40944 0.32716,-0.05938 0.30347,0.293004 0.22169,0.412204 -0.0454,0.06613 -0.18055,0.252013 -0.16729,0.172919 0.11085,-0.661144 0.66931,-1.338196 0.99468,-1.840722 0.34495,-0.290071 0.62692,-0.678596 1.03486,-0.870209 0.28496,-0.133848 0.53817,0.557664 0.34062,0.833376 -0.0986,0.137628 -0.45288,0.247642 -0.50073,0.08523 -0.0552,-0.18737 0.27321,-0.279704 0.39951,-0.428718 0.33231,-0.392059 0.65048,-0.795877 0.97572,-1.193815 0.0101,-0.01585 0.23411,0.126738 0.22403,0.142578 z"
         id="path2663"
         style="opacity:1;vector-effect:none;fill:#000000;fill-opacity:0.99500002;fill-rule:nonzero;stroke:none;stroke-width:0.05;stroke-linecap:round;stroke-linejoin:round;stroke-miterlimit:4;stroke-dasharray:none;stroke-dashoffset:0;stroke-opacity:1;paint-order:fill markers stroke" />
      <path
         inkscape:connector-curvature="0"
         d="m 108.40732,81.882265 c -0.43198,0.208608 -1.06933,0.432567 -1.43727,0.816858 -0.0392,0.04095 0.11937,-0.01318 0.16262,-0.04985 0.0743,-0.06301 0.0847,-0.275347 0.1735,-0.235183 0.0971,0.04395 0.0847,0.240826 0.0128,0.319503 -0.13498,0.147682 -0.361,0.172619 -0.5415,0.258929 -0.12196,0.09678 -0.93324,0.747943 -1.15608,0.9027 -0.0342,0.02373 0.0446,-0.08461 0.0858,-0.09065 0.0963,-0.01413 0.21268,-0.02379 0.28991,0.03549 0.35196,0.270131 -0.0719,0.443846 -0.23256,0.583951 -0.22366,-0.438322 -0.52655,0.363593 -0.7554,0.232976 -0.0603,-0.03441 0.0959,-0.123105 0.16521,-0.126828 0.0426,-0.0024 0.0478,0.07312 0.0563,0.114935 0.0587,0.288449 -0.0126,0.231214 -0.25059,0.454512 -0.38168,0.0047 -0.43413,-0.04959 -0.75616,0.149132 -0.0588,0.03629 -0.12333,0.08325 -0.14391,0.149215 -0.014,0.04505 0.0889,0.09499 0.0569,0.129643 -0.0371,0.04014 -0.1087,-0.01299 -0.16334,-0.01445 -0.0738,-0.0019 -0.14759,0.0028 -0.22139,0.0042 0.0297,0.01188 0.0593,0.02379 0.089,0.03566 -0.014,0.0079 -0.12614,-0.190563 -0.1121,-0.198488 v 0 c 0.0532,0.0075 0.10643,0.01492 0.15965,0.02238 -0.009,0.01188 -0.0249,0.0209 -0.0268,0.03565 -10e-4,0.0088 0.0175,0.0259 0.0201,0.01744 0.0132,-0.04275 -0.007,-0.09494 0.0157,-0.133334 0.0549,-0.09171 0.12746,-0.174286 0.20953,-0.242771 0.36676,-0.306012 0.28952,-0.239871 0.70272,-0.178827 0.064,-0.0028 0.12855,5.3e-4 0.192,-0.0083 0.0208,-0.0029 0.0745,-0.01431 0.0573,-0.02635 -0.16495,-0.115196 -0.55714,-0.103102 -0.30431,-0.512767 0.0577,-0.09355 0.21756,-0.03696 0.32199,-0.07129 0.14706,-0.04834 0.28654,-0.117245 0.4298,-0.175866 0.11962,0.009 0.24113,0.0039 0.35886,0.02695 0.0185,0.0036 -0.0266,0.03955 -0.0448,0.03449 -0.1215,-0.03392 -0.64883,-0.173847 -0.46256,-0.496001 0.1767,-0.305591 1.18632,-0.627036 1.37555,-0.701752 0.13149,-0.13159 0.21631,-0.341251 0.39447,-0.394771 0.12943,-0.03888 0.38657,0.03087 0.37032,0.165028 -0.041,0.338471 -0.66671,-0.08525 -0.664,-0.133456 0.0371,-0.661209 0.98355,-0.843711 1.36032,-1.014817 0.0224,-0.015 0.23466,0.30108 0.2123,0.316092 z"
         id="path2665"
         style="opacity:1;vector-effect:none;fill:#000000;fill-opacity:0.99500002;fill-rule:nonzero;stroke:none;stroke-width:0.05;stroke-linecap:round;stroke-linejoin:round;stroke-miterlimit:4;stroke-dasharray:none;stroke-dashoffset:0;stroke-opacity:1;paint-order:fill markers stroke" />
    </g>
  </g>
  <g
     inkscape:groupmode="layer"
     id="layer4"
     inkscape:label="master"
     style="display:none"
     transform="translate(0,2)"
     sodipodi:insensitive="true">
    <g
       transform="translate(1,-213)"
       id="g1071"
       style="display:inline;stroke-width:0.99999994">
      <rect
         y="212"
         x="0"
         height="85"
         width="107.99999"
         id="rect1067"
         style="opacity:1;vector-effect:none;fill:#fffdf9;fill-opacity:1;fill-rule:nonzero;stroke:none;stroke-width:0.2;stroke-linecap:round;stroke-linejoin:round;stroke-miterlimit:4;stroke-dasharray:none;stroke-dashoffset:0;stroke-opacity:1;paint-order:fill markers stroke"
         rx="0.80000001" />
      <rect
         y="218.53909"
         x="5"
         height="55"
         width="98"
         id="rect1069"
         style="opacity:1;vector-effect:none;fill:#000000;fill-opacity:0.99500002;fill-rule:nonzero;stroke:#1901ff;stroke-width:0.09999999;stroke-linecap:round;stroke-linejoin:round;stroke-miterlimit:4;stroke-dasharray:none;stroke-dashoffset:0;stroke-opacity:1;paint-order:fill markers stroke"
         rx="0.2" />
    </g>
  </g>
  <g
     style="display:none;opacity:0.6"
     inkscape:label="test_bghelper"
     id="g1063"
     inkscape:groupmode="layer"
     transform="translate(0,2)"
     sodipodi:insensitive="true">
    <image
       sodipodi:absref="/media/stefan/STEFAN64/python_simple_photobooth_webcam/overlay/P1550157_crop_1920x1080.jpg"
       xlink:href="P1550157_crop_1920x1080.jpg"
       width="99"
       height="55.688004"
       preserveAspectRatio="none"
       style="stroke-width:5.13128901;image-rendering:optimizeQuality"
       id="image1061"
       x="5.5"
       y="5.3119869" />
  </g>
  <g
     inkscape:groupmode="layer"
     id="layer7"
     inkscape:label="text"
     style="display:inline">
    <text
       xml:space="preserve"
       style="font-style:normal;font-variant:normal;font-weight:normal;font-stretch:normal;font-size:10px;line-height:100%;font-family:Ruthie;-inkscape-font-specification:Ruthie;letter-spacing:0px;word-spacing:0px;fill:#000000;fill-opacity:1;stroke:none;stroke-width:0.26458332;filter:url(#filter3028)"
       x="7.2637687"
       y="82.179138"
       id="text1089"
       transform="rotate(-10.39888)"><tspan
         sodipodi:role="line"
         id="tspan1087"
         x="7.2637687"
         y="82.179138"
         style="font-style:normal;font-variant:normal;font-weight:normal;font-stretch:normal;font-size:10px;font-family:Ruthie;-inkscape-font-specification:Ruthie;stroke-width:0.26458332;">Hello World :-)</tspan></text>
  </g>
</svg>
